<?xml version="1.0" standalone="no"?>
<!DOCTYPE svg PUBLIC "-//W3C//DTD SVG 1.1//EN" "http://www.w3.org/Graphics/SVG/1.1/DTD/svg11.dtd" >
<svg xmlns="http://www.w3.org/2000/svg" xmlns:xlink="http://www.w3.org/1999/xlink" version="1.1">
<metadata>
Created by FontForge 20201107 at Tue Jul 27 18:32:03 1926
 By Unknown
Copyright (C) 1993; Type Market Ltd. Moscow, 119136, Box 20; phone:(095)1427712; Created by A.Kustov
</metadata>
<defs>
<font id="Gals-Light" horiz-adv-x="500" >
  <font-face 
    font-family="Gals-Light "
    font-weight="400"
    font-stretch="normal"
    units-per-em="1000"
    panose-1="0 0 0 0 0 0 0 0 0 0"
    ascent="800"
    descent="-200"
    x-height="449"
    cap-height="683"
    bbox="-48 -231 1082 823"
    underline-thickness="30"
    underline-position="-166"
    unicode-range="U+0020-2122"
  />
<missing-glyph horiz-adv-x="769" 
d="M48 0v769h673v-769h-673zM673 48v673h-577v-673h577z" />
    <glyph glyph-name=".notdef" horiz-adv-x="769" 
d="M48 0v769h673v-769h-673zM673 48v673h-577v-673h577z" />
    <glyph glyph-name=".null" horiz-adv-x="0" 
 />
    <glyph glyph-name="nonmarkingreturn" horiz-adv-x="278" 
 />
    <glyph glyph-name="space" unicode=" " horiz-adv-x="278" 
 />
    <glyph glyph-name="exclam" unicode="!" horiz-adv-x="177" 
d="M52 682h64q-2 -56 -3 -111q-5 -169 -7 -221q-5 -116 -10 -158h-27q-5 41 -8.5 146.5t-5.5 197.5t-3 146zM52 96h64v-96h-64v96z" />
    <glyph glyph-name="quotedbl" unicode="&#x22;" horiz-adv-x="278" 
d="M36 691h73v-115l-15 -133h-43l-15 135v113zM165 691h75v-115l-16 -133h-43l-16 134v114z" />
    <glyph glyph-name="numbersign" unicode="#" horiz-adv-x="668" 
d="M247 666h41l-43 -203h224l42 203h42l-43 -203h104v-43h-112l-42 -199h154v-42h-163l-41 -202h-43l43 202h-224l-42 -202h-42l42 202h-104v42h113l42 199h-155v43h164zM236 420l-41 -198h224l41 198h-224z" />
    <glyph glyph-name="dollar" unicode="$" horiz-adv-x="521" 
d="M237 691h47v-31q49 0 89 -15t83 -45v-57q-40 31 -81 48t-91 22v-261q85 -20 134 -58q66 -51 66 -128q0 -78 -63 -128q-58 -46 -137 -46v-109h-47v108q-53 0 -105.5 21t-95.5 59v54q45 -34 96.5 -56.5t104.5 -30.5v277q-110 33 -156 82q-39 41 -39 97q0 76 65 124
q57 42 130 42v31zM237 613q-54 0 -98 -30q-49 -34 -49 -86q0 -51 51 -86q32 -22 96 -44v246zM284 299v-259q56 0 101 33q49 36 49 91q0 54 -50 90q-35 25 -100 45z" />
    <glyph glyph-name="percent" unicode="%" horiz-adv-x="698" 
d="M176 689q72 0 116.5 -46.5t44.5 -113.5t-45.5 -113.5t-115.5 -46.5q-66 0 -113 47t-47 113t46 113t114 47zM593 687h48l-549 -698h-49zM175 647q-48 0 -82.5 -35.5t-34.5 -82.5q0 -48 35.5 -83.5t82.5 -35.5q48 0 83.5 36.5t35.5 83.5q0 48 -35.5 82.5t-84.5 34.5z
M514 309q66 0 114 -46t48 -115q0 -68 -48 -114t-114 -46q-65 0 -112.5 47.5t-47.5 113.5t47 113t113 47zM514 266q-47 0 -82 -35t-35 -82t35 -83t82 -36q48 0 84 35t36 85q0 48 -36 82t-84 34z" />
    <glyph glyph-name="ampersand" unicode="&#x26;" horiz-adv-x="615" 
d="M261 669q66 0 108 -39t42 -102q0 -62 -46 -112q-36 -40 -98 -69l156 -161q23 31 42.5 72.5t31.5 81.5h56q-9 -40 -42.5 -108t-50.5 -85l138 -147h-66l-103 106q-50 -57 -105.5 -86t-121.5 -29q-73 0 -127 44q-59 48 -59 119q0 73 52 129q41 44 117 78q-41 46 -57 71
q-28 44 -28 86q0 65 46 108t115 43zM258 621q-47 0 -77 -29t-30 -70q0 -37 29 -78q16 -23 54 -61q60 30 85 53q43 38 43 88q0 41 -30 69t-74 28zM219 324q-64 -29 -96 -58q-50 -44 -50 -103q0 -55 39.5 -89.5t95.5 -34.5q53 0 104 31q42 26 81 74z" />
    <glyph glyph-name="quotesingle" unicode="'" horiz-adv-x="222" 
d="M72 690h71v-111l-13 -135h-43l-15 135v111z" />
    <glyph glyph-name="parenleft" unicode="(" horiz-adv-x="333" 
d="M260 689h48q-84 -75 -138 -199q-57 -130 -57 -258q0 -133 53 -256t143 -205h-49q-92 92 -144 210.5t-52 249.5q0 128 50 245q36 84 95 158q44 55 51 55z" />
    <glyph glyph-name="parenright" unicode=")" horiz-adv-x="333" 
d="M20 689h47q93 -91 145 -210.5t52 -247.5q0 -164 -76 -303q-46 -85 -120 -157h-48q91 84 142.5 206t51.5 254q0 124 -47 240q-35 86 -90 157q-38 49 -57 61z" />
    <glyph glyph-name="asterisk" unicode="*" horiz-adv-x="469" 
d="M212 691h46l-18 -180h6l115 137l34 -35l-138 -114l1 -3l179 15v-47l-178 20l-5 -3l141 -117l-34 -34l-115 139l-6 -2l18 -182h-46l16 184l-4 1l-114 -140l-35 34l141 114l-5 6l-179 -20v47l181 -15l-138 117l35 35l114 -138l4 1z" />
    <glyph glyph-name="plus" unicode="+" horiz-adv-x="667" 
d="M309 581h42v-241h242v-42h-242v-239h-42v239h-241v42h241v241z" />
    <glyph glyph-name="comma" unicode="," horiz-adv-x="177" 
d="M56 95h65v-20q0 -74 -7 -103q-13 -53 -58 -89v33q7 14 10 22q11 29 11 62h-21v95z" />
    <glyph glyph-name="hyphen" unicode="-" horiz-adv-x="667" 
d="M72 341h523v-42h-523v42z" />
    <glyph glyph-name="period" unicode="." horiz-adv-x="177" 
d="M60 96h64v-96h-64v96z" />
    <glyph glyph-name="slash" unicode="/" horiz-adv-x="278" 
d="M234 727h45l-233 -745h-46z" />
    <glyph glyph-name="zero" unicode="0" 
d="M246 691q116 0 174 -126q44 -96 44 -228q0 -139 -51 -235q-59 -111 -166 -111q-116 0 -174 120q-45 92 -45 221q0 157 54 254q59 105 164 105zM248 645q-89 0 -135 -113q-34 -84 -34 -191q0 -105 33 -188q45 -113 133 -113q90 0 135 113q34 85 34 191t-33 189
q-45 112 -133 112z" />
    <glyph glyph-name="one" unicode="1" 
d="M216 681h51v-681h-51v681z" />
    <glyph glyph-name="two" unicode="2" 
d="M152 48h318v-48h-434q109 97 203 231q113 162 113 264q0 63 -43.5 106.5t-109.5 43.5q-43 0 -84 -22q-29 -16 -70 -53v58q39 32 76.5 47.5t81.5 15.5q87 0 144 -57t57 -141q0 -71 -46 -162q-37 -73 -102 -158q-39 -51 -104 -125z" />
    <glyph glyph-name="three" unicode="3" 
d="M194 335v48q66 0 114 32q56 37 56 100q0 58 -47 93.5t-110 35.5q-37 0 -73 -11.5t-68 -34.5v48q31 22 65.5 33.5t77.5 11.5q85 0 142 -44q62 -48 62 -128q0 -59 -36 -101t-87 -56q55 -12 91 -55q40 -48 40 -120q0 -86 -57 -141t-148 -55q-38 0 -77 8.5t-79 24.5v48
q70 -35 149 -35q72 0 117.5 39t45.5 107q0 76 -52 116q-47 36 -126 36z" />
    <glyph glyph-name="four" unicode="4" 
d="M363 691h19v-387h95v-41h-95v-263h-51v263h-311v17zM331 594l-241 -290h241v290z" />
    <glyph glyph-name="five" unicode="5" 
d="M114 681h286v-45h-240v-218q23 5 53 5q105 0 166.5 -56.5t61.5 -154.5q0 -95 -62 -158t-160 -63q-44 0 -80.5 10.5t-82.5 33.5v58q56 -28 78 -37q47 -18 86 -18q74 0 121 49t47 121q0 78 -49 124t-132 46q-21 0 -43.5 -3.5t-49.5 -9.5v316z" />
    <glyph glyph-name="six" unicode="6" 
d="M324 691l29 -36q-99 -73 -159 -148q-75 -93 -95 -192q37 26 73.5 40t77.5 14q81 0 136.5 -51.5t55.5 -135.5q0 -83 -54 -137t-141 -54q-103 0 -158 73q-49 65 -49 167q0 137 85 263q71 105 199 197zM90 255q-1 -4 -1 -12v-13q0 -72 26 -119q39 -72 131 -72
q62 0 103.5 38.5t41.5 98.5q0 62 -42.5 103.5t-106.5 41.5q-38 0 -82 -18.5t-70 -47.5z" />
    <glyph glyph-name="seven" unicode="7" 
d="M28 682h446l-312 -691l-44 19l282 625h-372v47z" />
    <glyph glyph-name="eight" unicode="8" 
d="M246 328q-60 0 -101.5 -41.5t-41.5 -103.5q0 -58 43.5 -99.5t102.5 -41.5q60 0 100 41t40 105q0 61 -41.5 100.5t-101.5 39.5zM244 641q-54 0 -92.5 -39.5t-38.5 -93.5t40 -92t95 -38q53 0 91 39t38 93t-39.5 92.5t-93.5 38.5zM153 354q-37 24 -59 57q-29 44 -29 98
q0 73 52.5 127.5t126.5 54.5q76 0 129.5 -52.5t53.5 -129.5q0 -49 -22.5 -86.5t-64.5 -68.5q48 -30 70 -61q31 -43 31 -107q0 -82 -54.5 -138.5t-139.5 -56.5q-81 0 -138 55t-57 136q0 55 26 99t75 73z" />
    <glyph glyph-name="nine" unicode="9" 
d="M237 691q105 0 161 -74q48 -64 48 -166q0 -143 -95 -276q-79 -111 -195 -183l-28 35q76 61 100 83q59 54 96 109q46 69 61 146q-46 -28 -71 -37q-36 -13 -80 -13q-83 0 -136.5 52.5t-53.5 133.5q0 83 53.5 136.5t139.5 53.5zM239 646q-59 0 -101 -42t-42 -101
q0 -60 41 -100t101 -40q42 0 82 16.5t73 46.5l1 32q0 81 -34 130q-40 58 -121 58z" />
    <glyph glyph-name="colon" unicode=":" horiz-adv-x="177" 
d="M56 449h64v-96h-64v96zM56 97h64v-96h-64v96z" />
    <glyph glyph-name="semicolon" unicode=";" horiz-adv-x="177" 
d="M60 449h64v-96h-64v96zM60 95h65v-20q0 -74 -7 -103q-13 -53 -58 -89v33q7 14 10 22q11 29 11 62h-21v95z" />
    <glyph glyph-name="less" unicode="&#x3c;" horiz-adv-x="667" 
d="M590 560v-47l-465 -192l465 -194v-48l-522 222v39z" />
    <glyph glyph-name="equal" unicode="=" horiz-adv-x="667" 
d="M68 456h522v-42h-522v42zM68 230h522v-43h-522v43z" />
    <glyph glyph-name="greater" unicode="&#x3e;" horiz-adv-x="667" 
d="M72 560l522 -221v-40l-522 -220v47l465 193l-465 194v47z" />
    <glyph glyph-name="question" unicode="?" horiz-adv-x="281" 
d="M88 98h64v-96h-64v96zM133 179l-17 -14q-18 19 -28.5 44t-10.5 51q0 36 78 172q38 66 38 120q0 39 -21 67.5t-56 28.5q-24 0 -45 -16q-17 -13 -34 -37h-9l23 78q16 8 32.5 13t34.5 5q57 0 91.5 -39.5t34.5 -101.5q0 -79 -64.5 -172t-64.5 -137q0 -15 4 -28.5t14 -33.5z
" />
    <glyph glyph-name="at" unicode="@" horiz-adv-x="800" 
d="M425 681q165 0 264 -97t99 -258q0 -139 -86 -237q-78 -89 -166 -89q-27 0 -43 12t-16 41q0 5 2 19t2 15l-2 3q-26 -37 -71 -63.5t-94 -26.5q-78 0 -126 66q-43 59 -43 140q0 111 67 202q73 99 181 99q56 0 96 -28q35 -24 55 -67l16 83h61l-90 -431q0 -10 8 -15t17 -5
q40 0 85 39q36 31 64 77q21 35 31.5 77.5t10.5 87.5q0 156 -102 241q-90 75 -224 75q-169 0 -274.5 -111.5t-105.5 -279.5q0 -173 106.5 -276.5t277.5 -103.5q104 0 186.5 36t142.5 117h49q-51 -90 -151.5 -141t-225.5 -51q-190 0 -308 114t-118 306q0 191 116.5 310.5
t308.5 119.5zM395 464q-83 0 -139 -90q-50 -80 -50 -170q0 -61 30 -106q35 -52 94 -52q82 0 140 102q50 88 50 179q0 56 -35 96.5t-90 40.5z" />
    <glyph glyph-name="A" unicode="A" horiz-adv-x="667" 
d="M0 0l313 687h31l315 -687h-55l-108 236h-333l-108 -236h-55zM475 281l-146 320l-148 -320h294z" />
    <glyph glyph-name="B" unicode="B" horiz-adv-x="531" 
d="M118 637v-271h92q79 0 123 36t44 99t-38 96q-45 40 -145 40h-76zM118 321v-276h138q74 0 123 31q57 36 57 106q0 76 -61 111q-49 28 -130 28h-127zM266 0h-202v682h141q104 0 164 -42q65 -46 65 -135q0 -96 -98 -151q64 -13 104 -49q53 -48 53 -125q0 -91 -73 -139
q-62 -41 -154 -41z" />
    <glyph glyph-name="C" unicode="C" horiz-adv-x="677" 
d="M93 340q0 -130 86.5 -215.5t219.5 -85.5q62 0 125 20q44 14 116 50v-55q-60 -31 -118.5 -47t-122.5 -16q-154 0 -258.5 98.5t-104.5 248.5q0 148 102.5 250.5t254.5 102.5q67 0 131 -17q49 -13 109 -40v-57q-66 34 -106 47q-58 19 -126 19q-137 0 -222.5 -85.5
t-85.5 -217.5z" />
    <glyph glyph-name="D" unicode="D" horiz-adv-x="720" 
d="M64 682h254q154 0 253 -90q103 -94 103 -250t-95 -249t-242 -93h-273v682zM118 637v-592h179q154 0 237 76t83 219q0 145 -85.5 221t-234.5 76h-179z" />
    <glyph glyph-name="E" unicode="E" horiz-adv-x="490" 
d="M64 0v682h373v-45h-319v-271h311v-45h-311v-276h327v-45h-381z" />
    <glyph glyph-name="F" unicode="F" horiz-adv-x="438" 
d="M64 0v682h352v-45h-298v-258h268v-45h-268v-334h-54z" />
    <glyph glyph-name="G" unicode="G" horiz-adv-x="719" 
d="M411 691q59 0 116 -15t117 -43v-58q-50 33 -114 50.5t-128 17.5q-130 0 -215.5 -87.5t-85.5 -215.5q0 -126 86.5 -213.5t212.5 -87.5q46 0 102.5 11.5t101.5 31.5v184h-144v45h197v-263q-71 -29 -120 -41q-65 -16 -135 -16q-150 0 -254 103t-104 249q0 152 105 250
t262 98z" />
    <glyph glyph-name="H" unicode="H" horiz-adv-x="692" 
d="M64 0v683h54v-314h456v314h54v-683h-54v324h-456v-324h-54z" />
    <glyph glyph-name="I" unicode="I" horiz-adv-x="183" 
d="M64 0v683h54v-683h-54z" />
    <glyph glyph-name="J" unicode="J" horiz-adv-x="208" 
d="M79 682h54v-695q0 -68 -26.5 -116t-76.5 -63q-14 -4 -29.5 -5.5t-42.5 -1.5l-6 51l26 -3q59 0 83 49q18 36 18 100v684z" />
    <glyph glyph-name="K" unicode="K" horiz-adv-x="531" 
d="M64 0v683h54v-334l328 334h66l-325 -335l357 -348h-68l-358 338v-338h-54z" />
    <glyph glyph-name="L" unicode="L" horiz-adv-x="469" 
d="M64 0v683h54v-638h337v-45h-391z" />
    <glyph glyph-name="M" unicode="M" horiz-adv-x="757" 
d="M64 0v682h55l259 -316l258 316h56v-682h-54v613l-260 -320l-260 319v-612h-54z" />
    <glyph glyph-name="N" unicode="N" horiz-adv-x="745" 
d="M64 0v682h50l513 -596v596h53v-682h-44l-518 599v-599h-54z" />
    <glyph glyph-name="O" unicode="O" horiz-adv-x="823" 
d="M409 691q151 0 255.5 -99.5t104.5 -247.5q0 -150 -103.5 -251.5t-256.5 -101.5q-152 0 -256.5 100.5t-104.5 249.5q0 150 103 250t258 100zM407 39q132 0 218.5 88.5t86.5 216.5q0 125 -88 212t-215 87q-129 0 -216.5 -89.5t-87.5 -216.5q0 -125 87.5 -211.5t214.5 -86.5
z" />
    <glyph glyph-name="P" unicode="P" horiz-adv-x="510" 
d="M64 0v682h195q91 0 147 -39q67 -47 67 -143q0 -94 -67 -141q-57 -40 -147 -40h-141v-319h-54zM245 637h-127v-272h127q78 0 120 27q51 33 51 108q0 74 -51 108q-43 29 -120 29z" />
    <glyph glyph-name="Q" unicode="Q" horiz-adv-x="823" 
d="M414 643q-128 0 -216 -88t-88 -214q0 -125 86.5 -212.5t214.5 -87.5q129 0 217 87t88 213t-86 214t-216 88zM733 -64l14 -10l-61 -69q-166 19 -313 137q-25 0 -43 4q-20 6 -33 10q-110 31 -177.5 124t-67.5 207q0 151 103.5 251.5t258.5 100.5q151 0 253 -95
q107 -99 107 -254q0 -105 -52.5 -189t-150.5 -129q-20 -9 -42.5 -15.5t-74.5 -15.5q49 -34 107.5 -58t104.5 -24q22 0 34.5 5.5t32.5 19.5z" />
    <glyph glyph-name="R" unicode="R" horiz-adv-x="573" 
d="M64 682h166q138 0 195 -63q39 -43 39 -114q0 -61 -34 -104t-93 -60q17 -10 41 -37q21 -24 33 -42l171 -262h-62l-128 200q-47 73 -76 97q-36 30 -91 30h-107v-327h-54v682zM118 637v-265h114q91 0 135 38q40 34 40 95q0 67 -47 99.5t-152 32.5h-90z" />
    <glyph glyph-name="S" unicode="S" horiz-adv-x="469" 
d="M238 691q43 0 79.5 -10.5t78.5 -32.5v-58q-40 25 -72 38q-41 16 -80 16q-59 0 -102.5 -35.5t-43.5 -95.5q0 -37 22.5 -67.5t62.5 -46.5l108 -42q65 -25 99 -72.5t34 -104.5q0 -83 -58 -136t-140 -53q-44 0 -86.5 15.5t-88.5 44.5v61q47 -34 82 -51q48 -23 90 -23
q61 0 104 39t43 98q0 91 -96 129l-126 50q-45 18 -74.5 62.5t-29.5 93.5q0 79 58 130t136 51z" />
    <glyph glyph-name="T" unicode="T" horiz-adv-x="572" 
d="M0 638v45h564v-45h-255v-638h-54v638h-255z" />
    <glyph glyph-name="U" unicode="U" horiz-adv-x="698" 
d="M64 682h54v-372q0 -116 56 -189q63 -82 175 -82q115 0 176 79q55 72 55 193v371h54v-383q0 -134 -70 -217q-77 -91 -214 -91t-214 89q-72 83 -72 219v383z" />
    <glyph glyph-name="V" unicode="V" horiz-adv-x="594" 
d="M0 682h54l241 -577l240 577h53l-284 -687h-17z" />
    <glyph glyph-name="W" unicode="W" horiz-adv-x="1031" 
d="M0 682h53l226 -566l228 566h17l227 -566l227 566h53l-271 -687h-17l-228 573l-227 -573h-17z" />
    <glyph glyph-name="X" unicode="X" horiz-adv-x="688" 
d="M311 348l-295 334h64l263 -294l263 294h64l-293 -334l310 -348h-67l-276 311l-278 -311h-66z" />
    <glyph glyph-name="Y" unicode="Y" horiz-adv-x="583" 
d="M263 365l-263 317h63l227 -270l229 270h64l-266 -316v-366h-54v365z" />
    <glyph glyph-name="Z" unicode="Z" horiz-adv-x="635" 
d="M23 682h575v-18l-511 -619h515v-45h-602v15l511 622h-488v45z" />
    <glyph glyph-name="bracketleft" unicode="[" horiz-adv-x="302" 
d="M0 681h225v-47h-177v-809h177v-46h-225v902z" />
    <glyph glyph-name="backslash" unicode="\" horiz-adv-x="278" 
d="M0 727h45l234 -745h-46z" />
    <glyph glyph-name="bracketright" unicode="]" horiz-adv-x="302" 
d="M0 681h225v-902h-225v46h178v809h-178v47z" />
    <glyph glyph-name="asciicircum" unicode="^" 
d="M219 692l219 -263l-32 -26l-187 224l-188 -224l-31 26z" />
    <glyph glyph-name="underscore" unicode="_" 
d="M0 -136h519v-30h-519v30z" />
    <glyph glyph-name="grave" unicode="`" 
d="M0 638h97l62 -128h-49z" />
    <glyph glyph-name="a" unicode="a" horiz-adv-x="427" 
d="M294 230q-115 0 -172 -47q-42 -35 -42 -79q0 -34 26 -54t64 -20q36 0 63 14.5t61 44.5v141zM294 268v32q0 59 -14 81q-21 34 -86 34q-39 0 -67.5 -11.5t-68.5 -42.5v48q23 17 58 31q44 18 77 18q94 0 129 -50q20 -29 20 -78v-273q0 -19 7 -19q12 0 34 14q10 7 34 25v-39
q-34 -24 -44 -30q-29 -17 -47 -17q-21 0 -27 20q-3 26 -5 36q-33 -26 -68 -41t-72 -15q-51 0 -86.5 32.5t-35.5 81.5q0 89 98 132q71 31 164 31z" />
    <glyph glyph-name="b" unicode="b" horiz-adv-x="510" 
d="M60 682h48v-298q51 46 85 60t75 14q92 0 147 -60.5t55 -159.5q0 -112 -68.5 -179.5t-183.5 -67.5q-52 0 -89 10q-43 15 -69 23v658zM262 416q-46 0 -86 -25q-31 -19 -68 -60v-272q55 -22 110 -22q88 0 144.5 55.5t56.5 141.5q0 73 -40 125q-44 57 -117 57z" />
    <glyph glyph-name="c" unicode="c" horiz-adv-x="417" 
d="M253 458q61 0 116 -23v-52q-28 14 -56.5 22t-58.5 8q-78 0 -125 -54t-47 -137q0 -85 47.5 -135.5t128.5 -50.5q27 0 57 7.5t62 19.5v-49q-37 -11 -65 -17t-58 -6q-99 0 -160.5 61.5t-61.5 164.5q0 106 60.5 173.5t160.5 67.5z" />
    <glyph glyph-name="d" unicode="d" horiz-adv-x="504" 
d="M396 368q-34 24 -58 33q-31 12 -72 12q-81 0 -129 -53t-48 -133q0 -81 53 -136t135 -55q65 0 119 43v289zM396 422v260h48v-682h-48v35q-31 -22 -61.5 -33t-68.5 -11q-102 0 -166 67t-64 167q0 99 64 166t164 67q47 0 77 -11q33 -16 55 -25z" />
    <glyph glyph-name="e" unicode="e" horiz-adv-x="479" 
d="M241 458q91 0 147 -65q53 -61 53 -151h-353q0 -94 49.5 -150t127.5 -56q47 0 89 17.5t79 50.5v-53q-75 -60 -172 -60q-102 0 -163.5 68.5t-61.5 169.5q0 98 56.5 163.5t148.5 65.5zM243 415q-58 0 -98 -38t-52 -97h291q-12 60 -43 94q-37 41 -98 41z" />
    <glyph glyph-name="f" unicode="f" horiz-adv-x="230" 
d="M240 691q27 0 44 -5q24 -9 37 -14v-45q-26 8 -43.5 12t-35.5 4q-70 0 -95 -51q-16 -33 -16 -108v-35h87v-44h-87v-405h-48v405h-83v44h83v17q0 40 3 74.5t13 61.5q17 42 56 65.5t85 23.5z" />
    <glyph glyph-name="g" unicode="g" horiz-adv-x="405" 
d="M205 -24q-57 0 -96 -13q-64 -21 -64 -71q0 -47 57 -68q39 -14 96 -14q77 0 120 28q35 23 35 61q0 48 -54 66q-33 11 -94 11zM312 290q0 47 -36.5 82.5t-84.5 35.5q-49 0 -84 -35t-35 -83t36.5 -84.5t84.5 -36.5t83.5 36.5t35.5 84.5zM399 449v-40h-102q29 -29 43 -53
q19 -32 19 -69q0 -48 -30.5 -90t-76.5 -54l-100 -27q-17 -5 -31 -16q-19 -15 -19 -33q0 -19 20.5 -30t41.5 -13l124 -8q45 -4 77.5 -36.5t32.5 -78.5q0 -71 -65 -104q-53 -27 -136 -27q-74 0 -126 23q-71 32 -71 97q0 49 43 78q35 24 88 32q-30 6 -48 20q-25 18 -25 45
q0 36 41 54q24 10 49 21q-61 15 -92 63q-25 39 -25 84q0 81 56 124q50 38 129 38h183z" />
    <glyph glyph-name="h" unicode="h" horiz-adv-x="483" 
d="M60 682h47v-316q29 42 47 57q42 35 102 35q82 0 125 -51t43 -142v-265h-49v255q0 68 -30 110q-33 46 -96 46q-54 0 -98 -37t-44 -74v-300h-47v682z" />
    <glyph glyph-name="i" unicode="i" horiz-adv-x="170" 
d="M61 682h48v-82h-48v82zM61 449h48v-449h-48v449z" />
    <glyph glyph-name="j" unicode="j" horiz-adv-x="188" 
d="M66 681h47v-81h-47v81zM66 449h48v-487q0 -88 -29 -136q-33 -55 -103 -55l-14 39q54 6 76 37t22 95v507z" />
    <glyph glyph-name="k" unicode="k" horiz-adv-x="467" 
d="M60 682h48v-682h-48v682zM426 449l-244 -213l285 -236h-69l-283 236l248 213h63z" />
    <glyph glyph-name="l" unicode="l" horiz-adv-x="188" 
d="M68 682h47v-682h-47v682z" />
    <glyph glyph-name="m" unicode="m" horiz-adv-x="771" 
d="M107 305v-305h-48v449h48v-80q32 44 55 61q36 27 89 27q73 0 113 -47q11 -13 33 -60q32 38 64 77q39 30 93 30q82 0 123 -59q34 -49 34 -130v-268h-48v252q0 66 -22 106q-30 54 -94 54q-54 0 -100 -48q-38 -40 -38 -68v-296h-48v251q0 66 -23 107q-30 54 -97 54
q-56 0 -99 -46q-35 -38 -35 -61z" />
    <glyph glyph-name="n" unicode="n" horiz-adv-x="486" 
d="M108 305v-305h-48v449h48v-79q29 42 55 60q39 28 92 28q89 0 133 -61q37 -51 37 -138v-259h-48v252q0 68 -27 109q-34 51 -102 51q-58 0 -103 -44q-37 -36 -37 -63z" />
    <glyph glyph-name="o" unicode="o" horiz-adv-x="539" 
d="M267 458q100 0 164.5 -63.5t64.5 -170.5q0 -104 -65.5 -168.5t-164.5 -64.5q-98 0 -162 68t-64 167t62 165.5t165 66.5zM266 414q-79 0 -127.5 -55t-48.5 -134q0 -78 50 -134.5t127 -56.5q78 0 128.5 55.5t50.5 136.5q0 79 -48 132q-51 56 -132 56z" />
    <glyph glyph-name="p" unicode="p" horiz-adv-x="506" 
d="M108 377v-305q61 -36 122 -36q84 0 133 52t49 133q0 85 -53 138t-135 53q-31 0 -58.5 -8.5t-57.5 -26.5zM108 24v-254h-48v679h48v-26q63 35 131 35q99 0 162.5 -63.5t63.5 -168.5q0 -99 -64 -167t-164 -68q-33 0 -62.5 8t-66.5 25z" />
    <glyph glyph-name="q" unicode="q" horiz-adv-x="507" 
d="M398 370q-33 23 -60.5 33t-67.5 10q-83 0 -135 -61q-48 -57 -48 -140q0 -78 48.5 -127.5t128.5 -49.5q38 0 70.5 9t63.5 30v296zM398 417v32h48v-679h-48v256q-70 -35 -142 -35q-100 0 -160 63t-60 161q0 102 59 170q63 73 167 73q74 0 136 -41z" />
    <glyph glyph-name="r" unicode="r" horiz-adv-x="353" 
d="M108 278v-278h-48v449h48v-119q49 64 58 73q53 55 102 55q30 0 57 -17q15 -9 45 -37l-29 -44q-27 24 -40 33q-25 16 -49 16q-46 0 -99 -63q-45 -53 -45 -68z" />
    <glyph glyph-name="s" unicode="s" horiz-adv-x="334" 
d="M176 458q31 0 52 -6q9 -3 68 -32v-52q-30 21 -57 32q-33 14 -65 14q-42 0 -70.5 -21.5t-28.5 -55.5q0 -23 15 -40t38 -27l95 -39q42 -17 64 -49.5t22 -67.5q0 -56 -43 -89.5t-104 -33.5q-35 0 -66.5 10t-67.5 31v46q38 -19 71.5 -30.5t66.5 -11.5q38 0 66.5 20t28.5 54
q0 25 -18 46.5t-43 31.5l-101 42q-26 11 -47 41t-21 64q0 55 43.5 89t101.5 34z" />
    <glyph glyph-name="t" unicode="t" horiz-adv-x="338" 
d="M154 598h15v-149h126v-44h-126v-284q0 -41 11 -59q15 -24 56 -24q25 0 52 9q8 3 30 12v-46q-24 -10 -46.5 -15.5t-45.5 -5.5q-48 0 -76.5 27.5t-28.5 72.5v313h-121v44h121v107z" />
    <glyph glyph-name="u" unicode="u" horiz-adv-x="490" 
d="M377 144v305h47v-449h-47v74q-29 -41 -73 -63q-38 -19 -80 -19q-84 0 -127 56q-37 49 -37 131v270h47v-276q0 -62 28 -99q32 -42 94 -42q56 0 102 38.5t46 73.5z" />
    <glyph glyph-name="v" unicode="v" horiz-adv-x="427" 
d="M0 449h49l168 -378l162 378h48l-193 -458h-31z" />
    <glyph glyph-name="w" unicode="w" horiz-adv-x="708" 
d="M0 449h47l153 -366l141 366h26l137 -366l156 366h48l-194 -458h-23l-138 364l-139 -364h-22z" />
    <glyph glyph-name="x" unicode="x" horiz-adv-x="479" 
d="M1 449h61l171 -186l173 186h55l-198 -219l212 -230h-60l-181 197l-181 -197h-53l205 229z" />
    <glyph glyph-name="y" unicode="y" horiz-adv-x="417" 
d="M0 449h49l165 -314l153 314h50l-336 -679h-49l157 316z" />
    <glyph glyph-name="z" unicode="z" horiz-adv-x="396" 
d="M23 449h356v-18l-295 -387h295v-44h-375v16l297 389h-278v44z" />
    <glyph glyph-name="braceleft" unicode="{" horiz-adv-x="333" 
d="M276 681v-54q-86 0 -86 -79l-5 -188q0 -39 -27.5 -78.5t-65.5 -54.5q52 -23 76 -77q20 -45 20 -109v-101q0 -64 13 -84q17 -26 75 -32v-55q-77 0 -109.5 40t-32.5 118v119q0 65 -16 98q-22 44 -78 50v63q50 5 74 48q20 36 20 92v131q0 75 35 114t107 39z" />
    <glyph glyph-name="bar" unicode="|" 
d="M216 812h42v-829h-42v829z" />
    <glyph glyph-name="braceright" unicode="}" horiz-adv-x="333" 
d="M40 681q75 0 108.5 -39.5t33.5 -116.5v-123q0 -63 17 -96q22 -44 77 -49v-63q-50 -5 -74 -48q-20 -36 -20 -92v-131q0 -67 -38 -110t-104 -43v54q40 0 63 20t23 59l5 187q0 38 27.5 78.5t65.5 55.5q-52 23 -76 77q-20 46 -20 109v101q0 63 -14 86q-18 30 -74 30v54z" />
    <glyph glyph-name="asciitilde" unicode="~" 
d="M138 409q34 0 62 -11l98 -51q11 -4 29 -7.5t26 -3.5q41 0 83 29q9 6 44 34v-56q-29 -20 -43 -29q-40 -24 -84 -24q-16 0 -29.5 2t-27.5 8l-98 48q-18 7 -30.5 10.5t-28.5 3.5q-33 0 -64 -20q-5 -3 -55 -43v54q46 36 70 46t48 10z" />
    <glyph glyph-name="quotesinglbase" unicode="&#x201a;" horiz-adv-x="177" 
d="M52 96h65v-20q0 -74 -7 -103q-13 -53 -58 -89v33q7 14 10 22q11 29 11 62h-21v95z" />
    <glyph glyph-name="florin" unicode="&#x192;" horiz-adv-x="556" 
d="M245 474h-82l9 44h82l32 127q10 40 44 61.5t78 21.5q22 0 40.5 -4t47.5 -12l-10 -48q-11 4 -33.5 7t-39.5 3q-56 0 -74 -63q-12 -47 -24 -93h110l-11 -44h-107l-126 -579q-12 -52 -43 -78.5t-89 -26.5q-23 0 -37.5 3.5t-47.5 12.5l11 47q34 -5 69 -10q30 0 49.5 11.5
t24.5 32.5z" />
    <glyph glyph-name="quotedblbase" unicode="&#x201e;" horiz-adv-x="396" 
d="M263 95h65v-20q0 -74 -7 -103q-13 -53 -58 -89v33q7 14 10 22q11 29 11 62h-21v95zM48 95h65v-20q0 -74 -7 -103q-13 -53 -58 -89v33q7 14 10 22q11 29 11 62h-21v95z" />
    <glyph glyph-name="ellipsis" unicode="&#x2026;" horiz-adv-x="810" 
d="M121 96h64v-96h-64v96zM364 96h64v-96h-64v96zM608 96h64v-96h-64v96z" />
    <glyph glyph-name="dagger" unicode="&#x2020;" horiz-adv-x="490" 
d="M206 691h66l-18 -283l205 13v-55l-205 13l18 -609h-66l18 609l-204 -13v55l204 -13z" />
    <glyph glyph-name="daggerdbl" unicode="&#x2021;" horiz-adv-x="479" 
d="M202 691h64l-18 -253l199 11v-52l-199 14l14 -181l-14 -181l199 13v-54l-199 15l18 -253h-64l19 253l-201 -15v54l201 -13l-14 180l14 182l-201 -14v52l201 -11z" />
    <glyph glyph-name="circumflex" unicode="&#x2c6;" 
d="M200 639h81l96 -129h-67l-68 89l-68 -89h-70z" />
    <glyph glyph-name="perthousand" unicode="&#x2030;" horiz-adv-x="1052" 
d="M168 691q70 0 116 -47t46 -114q0 -65 -47 -113t-115 -48q-65 0 -112.5 47.5t-47.5 113.5q0 69 47 115t113 46zM574 687h49l-550 -698h-49zM168 647q-48 0 -82.5 -34.5t-34.5 -83.5q0 -48 35 -83t82 -35q50 0 84.5 35.5t34.5 83.5q0 49 -34 83t-85 34zM495 308
q69 0 115 -46t46 -112q0 -65 -45.5 -111.5t-115.5 -46.5q-65 0 -112.5 46.5t-47.5 111.5q0 68 47 113t113 45zM866 308q71 0 116 -46t45 -112q0 -71 -47 -114.5t-114 -43.5q-66 0 -113 46t-47 112q0 65 45.5 111.5t114.5 46.5zM495 266q-47 0 -82.5 -34.5t-35.5 -82.5
q0 -47 35 -83t83 -36q47 0 83 36t36 84q0 47 -35.5 81.5t-83.5 34.5zM866 266q-47 0 -82.5 -34.5t-35.5 -82.5q0 -47 35 -83t83 -36q51 0 85 36t34 84q0 47 -35.5 81.5t-83.5 34.5z" />
    <glyph glyph-name="guilsinglleft" unicode="&#x2039;" horiz-adv-x="281" 
d="M201 454h59l-188 -223l188 -224h-59l-189 223z" />
    <glyph glyph-name="quoteleft" unicode="&#x2018;" horiz-adv-x="177" 
d="M117 566v-96h-65v54q0 73 25 115q11 18 40 43v-34l-14 -34q-6 -23 -6 -48h20z" />
    <glyph glyph-name="quoteright" unicode="&#x2019;" horiz-adv-x="177" 
d="M52 682h65v-20q0 -74 -7 -103q-13 -53 -58 -89v33q7 14 10 22q11 29 11 62h-21v95z" />
    <glyph glyph-name="quotedblleft" unicode="&#x201c;" horiz-adv-x="396" 
d="M336 566v-96h-65v54q0 73 25 115q11 18 40 43v-34l-14 -34q-6 -23 -6 -48h20zM117 566v-96h-65v54q0 73 25 115q11 18 40 43v-34l-14 -34q-6 -23 -6 -48h20z" />
    <glyph glyph-name="quotedblright" unicode="&#x201d;" horiz-adv-x="396" 
d="M56 682h65v-20q0 -74 -7 -103q-13 -53 -58 -89v33q7 14 10 22q11 29 11 62h-21v95zM274 682h65v-20q0 -74 -7 -103q-13 -53 -58 -89v33q7 14 10 22q11 29 11 62h-21v95z" />
    <glyph glyph-name="bullet" unicode="&#x2022;" 
d="M237 462q49 0 85.5 -35.5t36.5 -85.5q0 -49 -35.5 -85.5t-85.5 -36.5q-49 0 -85.5 36.5t-36.5 86.5q0 49 35.5 84.5t85.5 35.5z" />
    <glyph glyph-name="endash" unicode="&#x2013;" 
d="M0 265h491v-31h-491v31z" />
    <glyph glyph-name="emdash" unicode="&#x2014;" horiz-adv-x="1016" 
d="M0 265h1011v-31h-1011v31z" />
    <glyph glyph-name="tilde" unicode="&#x2dc;" 
d="M161 617q21 0 59 -12q83 -26 92 -26q14 0 21 11t10 27h46q-5 -52 -23 -72t-47 -20q-21 0 -54 12q-77 28 -93 28q-18 0 -24.5 -10.5t-8.5 -29.5h-43q4 43 13 60q16 32 52 32z" />
    <glyph glyph-name="trademark" unicode="&#x2122;" horiz-adv-x="837" 
d="M56 716h309v-43h-131v-356h-48v356h-130v43zM412 716h75l100 -321l104 321h74v-399h-43v362l-119 -362h-34l-112 361v-361h-45v399z" />
    <glyph glyph-name="guilsinglright" unicode="&#x203a;" horiz-adv-x="281" 
d="M0 454h59l189 -223l-189 -224h-59l188 223z" />
    <glyph glyph-name="nonbreakingspace" unicode="&#xa0;" 
 />
    <glyph glyph-name="exclamdown" unicode="&#xa1;" horiz-adv-x="177" 
d="M56 461h64v-95h-64v95zM73 269h28q3 -24 7 -143.5t7 -204t5 -142.5h-64q1 58 2.5 118t6 201t8.5 171z" />
    <glyph glyph-name="cent" unicode="&#xa2;" horiz-adv-x="427" 
d="M365 638h43l-67 -189l34 -13v-53q-27 12 -31 14q-13 5 -19 6l-126 -355q7 -3 31.5 -7t33.5 -4q28 0 58.5 7.5t62.5 19.5v-47q-33 -13 -64 -20.5t-65 -7.5q-18 0 -33 2.5t-39 8.5l-68 -189h-44l74 206q-106 61 -106 198q0 102 57 171q61 73 157 73q11 0 22 -0.5t23 -3.5z
M266 413q-80 0 -128 -54t-48 -139q0 -47 17.5 -84t53.5 -70l125 346z" />
    <glyph glyph-name="sterling" unicode="&#xa3;" horiz-adv-x="520" 
d="M279 354v-47h-120l-66 -254q57 7 123 7q13 0 98 -13q39 -6 59 -6q37 0 66 10q14 5 33 14v-53q-33 -12 -51 -16.5t-46 -4.5q-16 0 -109 14q-47 7 -81 7q-42 0 -73.5 -3.5t-83.5 -12.5l84 311h-84v47h96l42 126q25 74 72 130q68 81 155 81q10 0 21.5 -1.5t25.5 -5.5l24 -49
q-17 5 -28.5 7.5t-25.5 2.5q-78 0 -139 -73q-42 -50 -61 -108l-37 -110h106z" />
    <glyph glyph-name="currency" unicode="&#xa4;" horiz-adv-x="667" 
d="M127 549l62 -61q36 28 57 37q29 12 79 12q49 0 80 -12q22 -9 58 -37l61 61l30 -31l-61 -60q27 -33 38 -62.5t11 -78.5q0 -46 -10.5 -74t-38.5 -60l61 -61l-30 -30l-61 61q-48 -34 -73 -41.5t-66 -7.5q-50 0 -75 10t-61 39l-61 -61l-31 30l62 61q-26 37 -36 62
q-13 33 -13 78t10.5 72.5t38.5 62.5l-62 60zM326 493q-72 0 -122.5 -50.5t-50.5 -123.5q0 -70 50 -121t121 -51q73 0 124 51t51 122q0 73 -51 123t-122 50z" />
    <glyph glyph-name="yen" unicode="&#xa5;" horiz-adv-x="556" 
d="M0 716h72l207 -356l204 356h69l-210 -356h179v-45h-206l-6 -10v-67h212v-46h-212v-192h-64v192h-214v46h214v66l-7 11h-207v45h181z" />
    <glyph glyph-name="brokenbar" unicode="&#xa6;" 
d="M228 812h42v-350h-42v350zM228 333h42v-350h-42v350z" />
    <glyph glyph-name="section" unicode="&#xa7;" horiz-adv-x="396" 
d="M203 691q61 0 93 -28t43 -82h-50q-10 33 -28 48q-22 18 -59 18t-65 -24.5t-28 -61.5q0 -33 19 -64q16 -27 48 -55l123 -112q29 -26 49 -64q24 -45 24 -83q0 -44 -26 -89q-20 -34 -59 -73q23 -25 36.5 -55t13.5 -63q0 -64 -42 -100q-38 -33 -100 -33q-53 0 -89 28t-44 80
h49q9 -29 30.5 -46.5t52.5 -17.5q40 0 67.5 23.5t27.5 64.5q0 29 -18.5 59t-44.5 54l-134 125q-29 27 -46.5 63t-17.5 75q0 43 26 87q21 35 58 72q-23 33 -34 56q-16 33 -16 64q0 60 39 97t102 37zM144 407q-22 -20 -33 -35q-34 -47 -34 -102q0 -46 71 -116q55 -51 110 -101
q13 11 20 20q46 53 46 118q0 45 -78 122z" />
    <glyph glyph-name="dieresis" unicode="&#xa8;" horiz-adv-x="490" 
d="M64 0v682h373v-45h-319v-271h311v-45h-311v-276h327v-45h-381zM162 823q17 0 31 -13t14 -31q0 -17 -13.5 -30.5t-30.5 -13.5q-16 0 -30 13t-14 30t13 31t30 14zM351 823q17 0 30.5 -13.5t13.5 -30.5q0 -16 -13 -30t-30 -14q-16 0 -30 13t-14 30t13 31t30 14z" />
    <glyph glyph-name="copyright" unicode="&#xa9;" horiz-adv-x="800" 
d="M396 727q160 0 267 -109t107 -263q0 -152 -110 -262t-263 -110t-263 109t-110 262q0 154 107.5 263.5t264.5 109.5zM396 683q-134 0 -230 -97t-96 -232t96 -231t231 -96q134 0 231 97t97 231q0 135 -97.5 231.5t-231.5 96.5zM401 559q58 0 100 -32q37 -28 57 -76l-47 -14
q-15 37 -42.5 59t-67.5 22q-63 0 -100 -46t-37 -114q0 -67 32 -116q37 -57 101 -57q45 0 77 29q28 25 45 71l43 -16q-11 -52 -55.5 -89.5t-108.5 -37.5q-83 0 -134.5 64t-51.5 149q0 89 52.5 146.5t136.5 57.5z" />
    <glyph glyph-name="ordfeminine" unicode="&#xaa;" horiz-adv-x="677" 
d="M393 691q67 0 131 -17q49 -13 109 -40v-58q-86 44 -132.5 55.5t-98.5 11.5q-129 0 -219 -80t-90 -195h340v-44h-340q0 -123 88 -204t218 -81q61 0 124 20q47 15 117 50v-55q-60 -31 -118.5 -47t-122.5 -16q-154 0 -258.5 98.5t-104.5 248.5q0 148 102.5 250.5
t254.5 102.5z" />
    <glyph glyph-name="guillemotleft" unicode="&#xab;" 
d="M209 454h59l-188 -223l188 -224h-59l-189 223zM423 454h58l-188 -223l188 -224h-58l-189 223z" />
    <glyph glyph-name="logicalnot" unicode="&#xac;" horiz-adv-x="667" 
d="M68 280h523v-280h-41v238h-482v42z" />
    <glyph glyph-name="minus" unicode="&#xad;" horiz-adv-x="313" 
d="M28 248h236v-46h-236v46z" />
    <glyph glyph-name="registered" unicode="&#xae;" horiz-adv-x="800" 
d="M396 727q154 0 264 -107t110 -265t-109 -265t-264 -107q-153 0 -263 109t-110 262q0 152 109.5 262.5t262.5 110.5zM396 683q-134 0 -230 -97t-96 -232t96 -231t231 -96q134 0 231 97t97 231q0 135 -97.5 231.5t-231.5 96.5zM246 547h168q55 0 88 -23q40 -28 40 -83
q0 -46 -28 -73t-89 -36q57 -15 98 -101q24 -55 34 -76h-60q-41 88 -56 110q-41 60 -146 60v-170h-49v392zM295 507v-141h62q62 0 86 9q42 16 42 64q0 39 -30 56q-22 12 -60 12h-100z" />
    <glyph glyph-name="macron" unicode="&#xaf;" horiz-adv-x="208" 
d="M76 681h54v-681h-54v681zM9 823q17 0 31 -13t14 -31q0 -17 -13.5 -30.5t-30.5 -13.5q-16 0 -30 13t-14 30t13 31t30 14zM198 823q17 0 30.5 -13.5t13.5 -30.5q0 -16 -13 -30t-30 -14q-16 0 -30 13t-14 30t13 31t30 14z" />
    <glyph glyph-name="degree" unicode="&#xb0;" horiz-adv-x="400" 
d="M195 690q57 0 99 -41t42 -99q0 -56 -41 -97t-98 -41t-99 40t-42 97t41 99t98 42zM195 651q-41 0 -70.5 -30.5t-29.5 -70.5q0 -41 30 -70t71 -29q40 0 70 30t30 70q0 41 -30.5 70.5t-70.5 29.5z" />
    <glyph glyph-name="plusminus" unicode="&#xb1;" horiz-adv-x="667" 
d="M308 660h42v-242h242v-42h-242v-240h-42v240h-240v42h240v242zM68 24h524v-42h-524v42z" />
    <glyph glyph-name="twosuperior" unicode="&#xb2;" horiz-adv-x="183" 
d="M64 0v683h54v-683h-54z" />
    <glyph glyph-name="threesuperior" unicode="&#xb3;" horiz-adv-x="170" 
d="M61 682h48v-82h-48v82zM61 449h48v-449h-48v449z" />
    <glyph glyph-name="acute" unicode="&#xb4;" 
d="M230 638h97l-110 -128h-49q23 40 36 66q26 49 26 62z" />
    <glyph glyph-name="mu" unicode="&#xb5;" horiz-adv-x="556" 
d="M92 449h49v-234q0 -80 25 -124q32 -56 106 -56q90 0 117 74q15 41 15 148v192h48v-449h-48v49q-31 -31 -55 -43q-32 -16 -77 -16t-72 13.5t-59 45.5v-226h-49v626z" />
    <glyph glyph-name="paragraph" unicode="&#xb6;" horiz-adv-x="650" 
d="M269 715h326v-47h-96v-867h-51v867h-131v-867h-53v504q-93 0 -156.5 56t-63.5 149q0 92 65.5 148.5t159.5 56.5z" />
    <glyph glyph-name="periodcentered" unicode="&#xb7;" horiz-adv-x="177" 
d="M52 396h64v-96h-64v96z" />
    <glyph glyph-name="periodcentered" unicode="&#x2219;" horiz-adv-x="177" 
d="M52 396h64v-96h-64v96z" />
    <glyph glyph-name="cedilla" unicode="&#xb8;" horiz-adv-x="479" 
d="M241 458q91 0 147 -65q53 -61 53 -151h-353q0 -94 49.5 -150t127.5 -56q47 0 89 17.5t79 50.5v-53q-75 -60 -172 -60q-102 0 -163.5 68.5t-61.5 169.5q0 98 56.5 163.5t148.5 65.5zM243 415q-58 0 -98 -38t-52 -97h291q-12 60 -43 94q-37 41 -98 41zM153 605q17 0 31 -13
t14 -31q0 -17 -13.5 -30.5t-30.5 -13.5q-16 0 -30 13t-14 30t13 31t30 14zM342 605q17 0 30.5 -13.5t13.5 -30.5q0 -16 -13 -30t-30 -14q-16 0 -30 13t-14 30t13 31t30 14z" />
    <glyph glyph-name="onesuperior" unicode="&#xb9;" horiz-adv-x="1106" 
d="M916 391q66 0 109.5 -38.5t43.5 -99.5q0 -63 -43.5 -103.5t-110.5 -40.5q-63 0 -105 37q-45 40 -45 104q0 61 41 101t110 40zM915 358q-48 0 -76.5 -31.5t-28.5 -76.5q0 -46 29 -77t77 -31q47 0 78 30t31 79q0 46 -30.5 76.5t-79.5 30.5zM752 71h330v-41h-330v41zM82 0
v681h49l514 -595v595h53v-681h-44l-518 599v-599h-54z" />
    <glyph glyph-name="ordmasculine" unicode="&#xba;" horiz-adv-x="417" 
d="M253 458q61 0 116 -23v-52q-28 14 -56.5 22t-58.5 8q-70 0 -116 -45t-54 -116h198v-44h-200q0 -78 49 -125t127 -47q27 0 57 7.5t62 19.5v-49q-37 -11 -65 -17t-58 -6q-99 0 -160.5 61.5t-61.5 164.5q0 106 60.5 173.5t160.5 67.5z" />
    <glyph glyph-name="guillemotright" unicode="&#xbb;" 
d="M0 454h58l189 -223l-189 -224h-58l189 223zM213 454h59l189 -223l-189 -224h-59l188 223z" />
    <glyph glyph-name="onequarter" unicode="&#xbc;" horiz-adv-x="667" 
d="M122 557l208 -208l208 208l29 -29l-207 -209l205 -205l-29 -30l-206 205l-207 -206l-30 30l207 206l-207 208z" />
    <glyph glyph-name="onehalf" unicode="&#xbd;" horiz-adv-x="667" 
d="M324 551q10 0 20 -9t10 -20q0 -10 -9 -20t-20 -10q-10 0 -20.5 10.5t-10.5 20.5t9 19t21 9zM64 340h523v-41h-523v41zM324 147q10 0 20 -9t10 -21q0 -10 -9.5 -19.5t-19.5 -9.5t-20.5 9.5t-10.5 19.5t9 20t21 10z" />
    <glyph glyph-name="threequarters" unicode="&#xbe;" horiz-adv-x="833" 
d="M125 691q51 0 85 -21q41 -25 41 -70q0 -31 -20 -52q-15 -16 -47 -29q33 -7 52.5 -30.5t19.5 -58.5q0 -51 -41 -79q-35 -24 -86 -24q-23 0 -44.5 4t-52.5 14v32q27 -10 47.5 -15.5t44.5 -5.5q40 0 66 18t26 54q0 42 -35 61q-26 14 -70 14v30q37 0 64 13q36 18 36 51
q0 31 -26 47.5t-61 16.5q-28 0 -56 -12q-12 -5 -32 -17v33q22 13 41 19.5t48 6.5zM655 691h39l-526 -718h-39zM724 360h20v-198h56v-28h-56v-134h-42v134h-183v13zM702 292l-127 -130h127v130z" />
    <glyph glyph-name="questiondown" unicode="&#xbf;" horiz-adv-x="188" 
d="M68 448h46v-448h-46v448zM-2 605q17 0 31 -13t14 -31q0 -17 -13.5 -30.5t-30.5 -13.5q-16 0 -30 13t-14 30t13 31t30 14zM187 605q17 0 30.5 -13.5t13.5 -30.5q0 -16 -13 -30t-30 -14q-16 0 -30 13t-14 30t13 31t30 14z" />
    <glyph glyph-name="Agrave" unicode="&#xc0;" horiz-adv-x="667" 
d="M0 0l313 687h31l315 -687h-55l-108 236h-333l-108 -236h-55zM475 281l-146 320l-148 -320h294z" />
    <glyph glyph-name="Agrave" unicode="&#x410;" horiz-adv-x="667" 
d="M0 0l313 687h31l315 -687h-55l-108 236h-333l-108 -236h-55zM475 281l-146 320l-148 -320h294z" />
    <glyph glyph-name="Aacute" unicode="&#xc1;" horiz-adv-x="510" 
d="M64 682h364v-45h-310v-270h137q97 0 153 -42q65 -49 65 -145q0 -90 -64 -137q-58 -43 -154 -43h-191v682zM118 45h122q81 0 123 26q53 33 53 111q0 75 -50 110q-42 30 -119 30h-129v-277z" />
    <glyph glyph-name="Aacute" unicode="&#x411;" horiz-adv-x="510" 
d="M64 682h364v-45h-310v-270h137q97 0 153 -42q65 -49 65 -145q0 -90 -64 -137q-58 -43 -154 -43h-191v682zM118 45h122q81 0 123 26q53 33 53 111q0 75 -50 110q-42 30 -119 30h-129v-277z" />
    <glyph glyph-name="Acircumflex" unicode="&#xc2;" horiz-adv-x="531" 
d="M118 637v-271h92q79 0 123 36t44 99t-38 96q-45 40 -145 40h-76zM118 321v-276h138q74 0 123 31q57 36 57 106q0 76 -61 111q-49 28 -130 28h-127zM266 0h-202v682h141q104 0 164 -42q65 -46 65 -135q0 -96 -98 -151q64 -13 104 -49q53 -48 53 -125q0 -91 -73 -139
q-62 -41 -154 -41z" />
    <glyph glyph-name="Acircumflex" unicode="&#x412;" horiz-adv-x="531" 
d="M118 637v-271h92q79 0 123 36t44 99t-38 96q-45 40 -145 40h-76zM118 321v-276h138q74 0 123 31q57 36 57 106q0 76 -61 111q-49 28 -130 28h-127zM266 0h-202v682h141q104 0 164 -42q65 -46 65 -135q0 -96 -98 -151q64 -13 104 -49q53 -48 53 -125q0 -91 -73 -139
q-62 -41 -154 -41z" />
    <glyph glyph-name="Atilde" unicode="&#xc3;" horiz-adv-x="469" 
d="M64 683v-683h54v638h337v45h-391z" />
    <glyph glyph-name="Atilde" unicode="&#x413;" horiz-adv-x="469" 
d="M64 683v-683h54v638h337v45h-391z" />
    <glyph glyph-name="Adieresis" unicode="&#xc4;" horiz-adv-x="701" 
d="M60 45q65 89 94 184q41 132 41 339v113h431v-636h58v-235h-50v190h-568v-190h-50v235h44zM120 45h452v591h-327v-130q0 -141 -35.5 -264t-89.5 -197z" />
    <glyph glyph-name="Adieresis" unicode="&#x414;" horiz-adv-x="701" 
d="M60 45q65 89 94 184q41 132 41 339v113h431v-636h58v-235h-50v190h-568v-190h-50v235h44zM120 45h452v591h-327v-130q0 -141 -35.5 -264t-89.5 -197z" />
    <glyph glyph-name="Aring" unicode="&#xc5;" horiz-adv-x="490" 
d="M64 0v682h373v-44h-319v-272h311v-44h-311v-278h327v-44h-381z" />
    <glyph glyph-name="Aring" unicode="&#x415;" horiz-adv-x="490" 
d="M64 0v682h373v-44h-319v-272h311v-44h-311v-278h327v-44h-381z" />
    <glyph glyph-name="AE" unicode="&#xc6;" horiz-adv-x="880" 
d="M466 368h25q41 0 72 41q23 30 59 114q72 168 159 168q31 0 61 -8v-50q-26 8 -56 8q-47 0 -79 -56q-12 -20 -32 -69q-30 -70 -49 -101q-26 -44 -53 -61q50 -10 120 -98q24 -31 67 -91l118 -165h-64l-112 158q-69 97 -109 131t-83 34h-44v-323h-54v323h-44q-43 0 -83 -34
t-109 -131l-112 -158h-64l118 165q65 92 89 119q54 61 98 70q-25 16 -52 61q-22 38 -50 101q-33 79 -57 102t-54 23t-56 -8v50q30 8 61 8q56 0 92 -43q27 -32 67 -125q36 -84 59 -114q31 -41 72 -41h25v313h54v-313z" />
    <glyph glyph-name="AE" unicode="&#x416;" horiz-adv-x="880" 
d="M466 368h25q41 0 72 41q23 30 59 114q72 168 159 168q31 0 61 -8v-50q-26 8 -56 8q-47 0 -79 -56q-12 -20 -32 -69q-30 -70 -49 -101q-26 -44 -53 -61q50 -10 120 -98q24 -31 67 -91l118 -165h-64l-112 158q-69 97 -109 131t-83 34h-44v-323h-54v323h-44q-43 0 -83 -34
t-109 -131l-112 -158h-64l118 165q65 92 89 119q54 61 98 70q-25 16 -52 61q-22 38 -50 101q-33 79 -57 102t-54 23t-56 -8v50q30 8 61 8q56 0 92 -43q27 -32 67 -125q36 -84 59 -114q31 -41 72 -41h25v313h54v-313z" />
    <glyph glyph-name="Ccedilla" unicode="&#xc7;" horiz-adv-x="515" 
d="M226 324h-62v45h52q81 0 131 39t50 101q0 66 -42 100t-119 34q-40 0 -81.5 -13t-92.5 -41v52q47 24 81 35q48 15 104 15q90 0 148.5 -45.5t58.5 -128.5q0 -62 -42 -111q-36 -42 -79 -53q62 -12 103 -54q47 -48 47 -119q0 -87 -63.5 -138t-165.5 -51q-64 0 -118.5 11
t-102.5 39v60q47 -33 99.5 -47.5t117.5 -14.5q77 0 126.5 38t49.5 103q0 68 -54 106t-146 38z" />
    <glyph glyph-name="Ccedilla" unicode="&#x417;" horiz-adv-x="515" 
d="M226 324h-62v45h52q81 0 131 39t50 101q0 66 -42 100t-119 34q-40 0 -81.5 -13t-92.5 -41v52q47 24 81 35q48 15 104 15q90 0 148.5 -45.5t58.5 -128.5q0 -62 -42 -111q-36 -42 -79 -53q62 -12 103 -54q47 -48 47 -119q0 -87 -63.5 -138t-165.5 -51q-64 0 -118.5 11
t-102.5 39v60q47 -33 99.5 -47.5t117.5 -14.5q77 0 126.5 38t49.5 103q0 68 -54 106t-146 38z" />
    <glyph glyph-name="Egrave" unicode="&#xc8;" horiz-adv-x="742" 
d="M651 0h-54v605l-488 -605h-45v682h54v-598l483 598h50v-682z" />
    <glyph glyph-name="Egrave" unicode="&#x418;" horiz-adv-x="742" 
d="M651 0h-54v605l-488 -605h-45v682h54v-598l483 598h50v-682z" />
    <glyph glyph-name="Eacute" unicode="&#xc9;" horiz-adv-x="742" 
d="M651 0h-54v605l-488 -605h-45v682h54v-598l483 598h50v-682zM211 823h53q6 -68 86 -68q39 0 57 16.5t26 51.5h50q0 -50 -35.5 -83t-97.5 -33t-97.5 32.5t-41.5 83.5z" />
    <glyph glyph-name="Eacute" unicode="&#x419;" horiz-adv-x="742" 
d="M651 0h-54v605l-488 -605h-45v682h54v-598l483 598h50v-682zM211 823h53q6 -68 86 -68q39 0 57 16.5t26 51.5h50q0 -50 -35.5 -83t-97.5 -33t-97.5 32.5t-41.5 83.5z" />
    <glyph glyph-name="Ecircumflex" unicode="&#xca;" horiz-adv-x="559" 
d="M118 368h53q41 0 72 41q23 30 59 114q72 168 159 168q29 0 55 -10v-50q-23 10 -50 10q-37 0 -65 -37q-21 -27 -46 -88q-30 -70 -49 -101q-26 -44 -53 -61q50 -10 120 -98q24 -31 67 -91l118 -165h-64l-112 158q-69 97 -109 131t-83 34h-72v-323h-54v681h54v-313z" />
    <glyph glyph-name="Ecircumflex" unicode="&#x41a;" horiz-adv-x="559" 
d="M118 368h53q41 0 72 41q23 30 59 114q72 168 159 168q29 0 55 -10v-50q-23 10 -50 10q-37 0 -65 -37q-21 -27 -46 -88q-30 -70 -49 -101q-26 -44 -53 -61q50 -10 120 -98q24 -31 67 -91l118 -165h-64l-112 158q-69 97 -109 131t-83 34h-72v-323h-54v681h54v-313z" />
    <glyph glyph-name="Edieresis" unicode="&#xcb;" horiz-adv-x="726" 
d="M135 682h522v-682h-54v637h-414v-460q0 -68 -26.5 -116t-76.5 -63q-14 -4 -29.5 -5.5t-42.5 -1.5l-6 51l26 -3q59 0 83 49q18 36 18 100v494z" />
    <glyph glyph-name="Edieresis" unicode="&#x41b;" horiz-adv-x="726" 
d="M135 682h522v-682h-54v637h-414v-460q0 -68 -26.5 -116t-76.5 -63q-14 -4 -29.5 -5.5t-42.5 -1.5l-6 51l26 -3q59 0 83 49q18 36 18 100v494z" />
    <glyph glyph-name="Igrave" unicode="&#xcc;" horiz-adv-x="757" 
d="M64 0v682h55l259 -316l258 316h56v-682h-54v613l-260 -320l-260 319v-612h-54z" />
    <glyph glyph-name="Igrave" unicode="&#x41c;" horiz-adv-x="757" 
d="M64 0v682h55l259 -316l258 316h56v-682h-54v613l-260 -320l-260 319v-612h-54z" />
    <glyph glyph-name="Iacute" unicode="&#xcd;" horiz-adv-x="692" 
d="M64 0v683h54v-314h456v314h54v-683h-54v324h-456v-324h-54z" />
    <glyph glyph-name="Iacute" unicode="&#x41d;" horiz-adv-x="692" 
d="M64 0v683h54v-314h456v314h54v-683h-54v324h-456v-324h-54z" />
    <glyph glyph-name="Icircumflex" unicode="&#xce;" horiz-adv-x="823" 
d="M409 691q151 0 255.5 -99.5t104.5 -247.5q0 -150 -103.5 -251.5t-256.5 -101.5q-152 0 -256.5 100.5t-104.5 249.5q0 150 103 250t258 100zM407 39q132 0 218.5 88.5t86.5 216.5q0 125 -88 212t-215 87q-129 0 -216.5 -89.5t-87.5 -216.5q0 -125 87.5 -211.5t214.5 -86.5
z" />
    <glyph glyph-name="Icircumflex" unicode="&#x41e;" horiz-adv-x="823" 
d="M409 691q151 0 255.5 -99.5t104.5 -247.5q0 -150 -103.5 -251.5t-256.5 -101.5q-152 0 -256.5 100.5t-104.5 249.5q0 150 103 250t258 100zM407 39q132 0 218.5 88.5t86.5 216.5q0 125 -88 212t-215 87q-129 0 -216.5 -89.5t-87.5 -216.5q0 -125 87.5 -211.5t214.5 -86.5
z" />
    <glyph glyph-name="Idieresis" unicode="&#xcf;" horiz-adv-x="695" 
d="M64 0v683h564v-683h-54v638h-456v-638h-54z" />
    <glyph glyph-name="Idieresis" unicode="&#x41f;" horiz-adv-x="695" 
d="M64 0v683h564v-683h-54v638h-456v-638h-54z" />
    <glyph glyph-name="Eth" unicode="&#xd0;" horiz-adv-x="510" 
d="M64 0v682h195q92 0 147 -39q66 -46 66 -143q0 -94 -68 -141q-58 -40 -149 -40h-137v-319h-54zM247 638h-129v-275h129q78 0 119 28q50 34 50 109q0 74 -50 109q-42 29 -119 29z" />
    <glyph glyph-name="Eth" unicode="&#x420;" horiz-adv-x="510" 
d="M64 0v682h195q92 0 147 -39q66 -46 66 -143q0 -94 -68 -141q-58 -40 -149 -40h-137v-319h-54zM247 638h-129v-275h129q78 0 119 28q50 34 50 109q0 74 -50 109q-42 29 -119 29z" />
    <glyph glyph-name="Ntilde" unicode="&#xd1;" horiz-adv-x="677" 
d="M393 691q67 0 131 -17q49 -13 109 -40v-57q-66 34 -106 47q-58 19 -126 19q-137 0 -222.5 -85.5t-85.5 -217.5q0 -130 86.5 -215.5t219.5 -85.5q62 0 125 20q44 14 116 50v-55q-60 -31 -118.5 -47t-122.5 -16q-154 0 -258.5 98.5t-104.5 248.5q0 148 102.5 250.5
t254.5 102.5z" />
    <glyph glyph-name="Ntilde" unicode="&#x421;" horiz-adv-x="677" 
d="M393 691q67 0 131 -17q49 -13 109 -40v-57q-66 34 -106 47q-58 19 -126 19q-137 0 -222.5 -85.5t-85.5 -217.5q0 -130 86.5 -215.5t219.5 -85.5q62 0 125 20q44 14 116 50v-55q-60 -31 -118.5 -47t-122.5 -16q-154 0 -258.5 98.5t-104.5 248.5q0 148 102.5 250.5
t254.5 102.5z" />
    <glyph glyph-name="Ograve" unicode="&#xd2;" horiz-adv-x="572" 
d="M0 638v45h564v-45h-255v-638h-54v638h-255z" />
    <glyph glyph-name="Ograve" unicode="&#x422;" horiz-adv-x="572" 
d="M0 638v45h564v-45h-255v-638h-54v638h-255z" />
    <glyph glyph-name="Oacute" unicode="&#xd3;" horiz-adv-x="546" 
d="M71 682l224 -432l189 432h60l-303 -682h-54l81 192l-260 490h63z" />
    <glyph glyph-name="Oacute" unicode="&#x423;" horiz-adv-x="546" 
d="M71 682l224 -432l189 432h60l-303 -682h-54l81 192l-260 490h63z" />
    <glyph glyph-name="Ocircumflex" unicode="&#xd4;" horiz-adv-x="736" 
d="M339 682h54v-88h49q106 0 180 -65q81 -72 81 -189q0 -123 -79 -191q-71 -61 -182 -61h-49v-88h-54v88h-49q-112 0 -182 60q-79 67 -79 192q0 117 80 188q74 66 181 66h49v88zM339 133v415h-33q-102 0 -161 -56t-59 -152q0 -100 58.5 -153.5t162.5 -53.5h32zM393 548v-415
h31q104 0 163 53t59 154q0 96 -59 152t-161 56h-33z" />
    <glyph glyph-name="Ocircumflex" unicode="&#x424;" horiz-adv-x="736" 
d="M339 682h54v-88h49q106 0 180 -65q81 -72 81 -189q0 -123 -79 -191q-71 -61 -182 -61h-49v-88h-54v88h-49q-112 0 -182 60q-79 67 -79 192q0 117 80 188q74 66 181 66h49v88zM339 133v415h-33q-102 0 -161 -56t-59 -152q0 -100 58.5 -153.5t162.5 -53.5h32zM393 548v-415
h31q104 0 163 53t59 154q0 96 -59 152t-161 56h-33z" />
    <glyph glyph-name="Otilde" unicode="&#xd5;" horiz-adv-x="688" 
d="M311 348l-295 333h65l262 -293l263 293h64l-293 -333l310 -348h-67l-276 311l-278 -311h-66z" />
    <glyph glyph-name="Otilde" unicode="&#x425;" horiz-adv-x="688" 
d="M311 348l-295 333h65l262 -293l263 293h64l-293 -333l310 -348h-67l-276 311l-278 -311h-66z" />
    <glyph glyph-name="Odieresis" unicode="&#xd6;" horiz-adv-x="706" 
d="M118 45h456v636h54v-636h58v-235h-50v190h-572v681h54v-636z" />
    <glyph glyph-name="Odieresis" unicode="&#x426;" horiz-adv-x="706" 
d="M118 45h456v636h54v-636h58v-235h-50v190h-572v681h54v-636z" />
    <glyph glyph-name="multiply" unicode="&#xd7;" horiz-adv-x="586" 
d="M464 682h54v-682h-54v326q-40 -7 -87.5 -11t-81.5 -4q-127 0 -182 53q-49 47 -49 148v169h54v-171q0 -87 45 -119t157 -32q74 0 144 15v308z" />
    <glyph glyph-name="multiply" unicode="&#x427;" horiz-adv-x="586" 
d="M464 682h54v-682h-54v326q-40 -7 -87.5 -11t-81.5 -4q-127 0 -182 53q-49 47 -49 148v169h54v-171q0 -87 45 -119t157 -32q74 0 144 15v308z" />
    <glyph glyph-name="Oslash" unicode="&#xd8;" horiz-adv-x="955" 
d="M64 681h54v-636h327v636h54v-636h327v636h54v-681h-816v681z" />
    <glyph glyph-name="Oslash" unicode="&#x428;" horiz-adv-x="955" 
d="M64 681h54v-636h327v636h54v-636h327v636h54v-681h-816v681z" />
    <glyph glyph-name="Ugrave" unicode="&#xd9;" horiz-adv-x="955" 
d="M64 681h54v-636h327v636h54v-636h327v636h54v-636h58v-235h-50v190h-824v681z" />
    <glyph glyph-name="Ugrave" unicode="&#x429;" horiz-adv-x="955" 
d="M64 681h54v-636h327v636h54v-636h327v636h54v-636h58v-235h-50v190h-824v681z" />
    <glyph glyph-name="Uacute" unicode="&#xda;" horiz-adv-x="564" 
d="M-10 682h182v-315h137q97 0 153 -42q65 -49 65 -145q0 -90 -64 -137q-58 -43 -154 -43h-191v637h-128v45zM172 45h122q81 0 123 26q53 33 53 111q0 75 -50 110q-42 30 -119 30h-129v-277z" />
    <glyph glyph-name="Uacute" unicode="&#x42a;" horiz-adv-x="564" 
d="M-10 682h182v-315h137q97 0 153 -42q65 -49 65 -145q0 -90 -64 -137q-58 -43 -154 -43h-191v637h-128v45zM172 45h122q81 0 123 26q53 33 53 111q0 75 -50 110q-42 30 -119 30h-129v-277z" />
    <glyph glyph-name="Ucircumflex" unicode="&#xdb;" horiz-adv-x="718" 
d="M64 682h54v-315h139q97 0 152 -42q64 -49 64 -145q0 -90 -63 -137q-57 -43 -153 -43h-193v682zM118 45h122q81 0 123 26q53 33 53 111q0 75 -50 110q-42 30 -119 30h-129v-277zM599 0v682h54v-682h-54z" />
    <glyph glyph-name="Ucircumflex" unicode="&#x42b;" horiz-adv-x="718" 
d="M64 682h54v-315h139q97 0 152 -42q64 -49 64 -145q0 -90 -63 -137q-57 -43 -153 -43h-193v682zM118 45h122q81 0 123 26q53 33 53 111q0 75 -50 110q-42 30 -119 30h-129v-277zM599 0v682h54v-682h-54z" />
    <glyph glyph-name="Udieresis" unicode="&#xdc;" horiz-adv-x="510" 
d="M64 682h54v-315h139q97 0 152 -42q64 -49 64 -145q0 -90 -63 -137q-57 -43 -153 -43h-193v682zM118 45h122q81 0 123 26q53 33 53 111q0 75 -50 110q-42 30 -119 30h-129v-277z" />
    <glyph glyph-name="Udieresis" unicode="&#x42c;" horiz-adv-x="510" 
d="M64 682h54v-315h139q97 0 152 -42q64 -49 64 -145q0 -90 -63 -137q-57 -43 -153 -43h-193v682zM118 45h122q81 0 123 26q53 33 53 111q0 75 -50 110q-42 30 -119 30h-129v-277z" />
    <glyph glyph-name="Yacute" unicode="&#xdd;" horiz-adv-x="677" 
d="M283 691q152 0 254.5 -102.5t102.5 -250.5q0 -151 -104 -249t-259 -98q-61 0 -121 16t-120 47v55q65 -32 116 -49q65 -21 125 -21q130 0 218 81t88 204h-340v44h340q0 115 -90 195t-220 80q-53 0 -98 -11.5t-132 -55.5v58q60 27 108 40q63 17 132 17z" />
    <glyph glyph-name="Yacute" unicode="&#x42d;" horiz-adv-x="677" 
d="M283 691q152 0 254.5 -102.5t102.5 -250.5q0 -151 -104 -249t-259 -98q-61 0 -121 16t-120 47v55q65 -32 116 -49q65 -21 125 -21q130 0 218 81t88 204h-340v44h340q0 115 -90 195t-220 80q-53 0 -98 -11.5t-132 -55.5v58q60 27 108 40q63 17 132 17z" />
    <glyph glyph-name="Thorn" unicode="&#xde;" horiz-adv-x="1015" 
d="M131 368h126q0 138 105.5 230.5t254.5 92.5q151 0 255.5 -99.5t104.5 -247.5q0 -150 -103.5 -251.5t-256.5 -101.5q-149 0 -255 95.5t-106 237.5h-125v-324h-54v682h54v-314zM616 39q131 0 217.5 88.5t86.5 216.5q0 125 -87 212t-214 87q-129 0 -217.5 -89.5
t-88.5 -216.5q0 -124 88 -211t215 -87z" />
    <glyph glyph-name="Thorn" unicode="&#x42e;" horiz-adv-x="1015" 
d="M131 368h126q0 138 105.5 230.5t254.5 92.5q151 0 255.5 -99.5t104.5 -247.5q0 -150 -103.5 -251.5t-256.5 -101.5q-149 0 -255 95.5t-106 237.5h-125v-324h-54v682h54v-314zM616 39q131 0 217.5 88.5t86.5 216.5q0 125 -87 212t-214 87q-129 0 -217.5 -89.5
t-88.5 -216.5q0 -124 88 -211t215 -87z" />
    <glyph glyph-name="germandbls" unicode="&#xdf;" horiz-adv-x="562" 
d="M496 0h-54v324h-115q-53 0 -85 -30q-26 -25 -61 -95l-98 -199h-58l115 227q27 53 44.5 77t37.5 36q-60 18 -91 55q-35 42 -35 110t40 114q55 63 171 63h189v-682zM442 637h-115q-174 0 -174 -132q0 -61 40 -96q45 -40 136 -40h113v268z" />
    <glyph glyph-name="germandbls" unicode="&#x42f;" horiz-adv-x="562" 
d="M496 0h-54v324h-115q-53 0 -85 -30q-26 -25 -61 -95l-98 -199h-58l115 227q27 53 44.5 77t37.5 36q-60 18 -91 55q-35 42 -35 110t40 114q55 63 171 63h189v-682zM442 637h-115q-174 0 -174 -132q0 -61 40 -96q45 -40 136 -40h113v268z" />
    <glyph glyph-name="agrave" unicode="&#xe0;" horiz-adv-x="427" 
d="M294 230q-115 0 -172 -47q-42 -35 -42 -79q0 -34 26 -54t64 -20q36 0 63 14.5t61 44.5v141zM294 268v32q0 59 -14 81q-21 34 -86 34q-39 0 -67.5 -11.5t-68.5 -42.5v48q23 17 58 31q44 18 77 18q94 0 129 -50q20 -29 20 -78v-273q0 -19 7 -19q12 0 34 14q10 7 34 25v-39
q-34 -24 -44 -30q-29 -17 -47 -17q-21 0 -27 20q-3 26 -5 36q-33 -26 -68 -41t-72 -15q-51 0 -86.5 32.5t-35.5 81.5q0 89 98 132q71 31 164 31z" />
    <glyph glyph-name="agrave" unicode="&#x430;" horiz-adv-x="427" 
d="M294 230q-115 0 -172 -47q-42 -35 -42 -79q0 -34 26 -54t64 -20q36 0 63 14.5t61 44.5v141zM294 268v32q0 59 -14 81q-21 34 -86 34q-39 0 -67.5 -11.5t-68.5 -42.5v48q23 17 58 31q44 18 77 18q94 0 129 -50q20 -29 20 -78v-273q0 -19 7 -19q12 0 34 14q10 7 34 25v-39
q-34 -24 -44 -30q-29 -17 -47 -17q-21 0 -27 20q-3 26 -5 36q-33 -26 -68 -41t-72 -15q-51 0 -86.5 32.5t-35.5 81.5q0 89 98 132q71 31 164 31z" />
    <glyph glyph-name="aacute" unicode="&#xe1;" horiz-adv-x="537" 
d="M40 236q0 -96 54 -165q63 -80 172 -80q105 0 167.5 67.5t62.5 165.5q0 103 -62.5 168.5t-161.5 65.5q-65 0 -113 -30q-43 -26 -72 -75q0 53 13 99.5t38.5 92t56.5 67.5q40 28 104 28q26 0 52 -5t42 -5q19 0 32.5 3.5t35.5 12.5v42q-20 -14 -64 -14q-17 0 -45 5t-55 5
q-68 0 -122 -36q-48 -32 -78 -89t-43.5 -136.5t-13.5 -186.5zM446 226q0 -76 -44 -130q-50 -62 -136 -62q-81 0 -131 61q-45 55 -45 129q0 77 46 131q50 59 130 59q84 0 135 -61q45 -54 45 -127z" />
    <glyph glyph-name="aacute" unicode="&#x431;" horiz-adv-x="537" 
d="M40 236q0 -96 54 -165q63 -80 172 -80q105 0 167.5 67.5t62.5 165.5q0 103 -62.5 168.5t-161.5 65.5q-65 0 -113 -30q-43 -26 -72 -75q0 53 13 99.5t38.5 92t56.5 67.5q40 28 104 28q26 0 52 -5t42 -5q19 0 32.5 3.5t35.5 12.5v42q-20 -14 -64 -14q-17 0 -45 5t-55 5
q-68 0 -122 -36q-48 -32 -78 -89t-43.5 -136.5t-13.5 -186.5zM446 226q0 -76 -44 -130q-50 -62 -136 -62q-81 0 -131 61q-45 55 -45 129q0 77 46 131q50 59 130 59q84 0 135 -61q45 -54 45 -127z" />
    <glyph glyph-name="acircumflex" unicode="&#xe2;" horiz-adv-x="412" 
d="M61 0v449h132q64 0 106 -29.5t42 -86.5q0 -34 -21.5 -59.5t-47.5 -32.5q43 -8 73 -32q40 -33 40 -85q0 -62 -38 -93t-123 -31h-163zM109 405v-153h88q46 0 70 21t24 60q0 35 -26.5 53.5t-75.5 18.5h-80zM109 208v-164h106q63 0 88 14q32 18 32 68q0 42 -32 62t-83 20
h-111z" />
    <glyph glyph-name="acircumflex" unicode="&#x432;" horiz-adv-x="412" 
d="M61 0v449h132q64 0 106 -29.5t42 -86.5q0 -34 -21.5 -59.5t-47.5 -32.5q43 -8 73 -32q40 -33 40 -85q0 -62 -38 -93t-123 -31h-163zM109 405v-153h88q46 0 70 21t24 60q0 35 -26.5 53.5t-75.5 18.5h-80zM109 208v-164h106q63 0 88 14q32 18 32 68q0 42 -32 62t-83 20
h-111z" />
    <glyph glyph-name="atilde" unicode="&#xe3;" horiz-adv-x="362" 
d="M59 449h299v-44h-251v-405h-48v449z" />
    <glyph glyph-name="atilde" unicode="&#x433;" horiz-adv-x="362" 
d="M59 449h299v-44h-251v-405h-48v449z" />
    <glyph glyph-name="adieresis" unicode="&#xe4;" horiz-adv-x="505" 
d="M445 449v-405h49v-194h-46v150h-389v-150h-46v194h42q46 66 67 119q32 79 32 166v120h291zM397 405h-195v-82q0 -78 -30 -159q-25 -68 -64 -120h289v361z" />
    <glyph glyph-name="adieresis" unicode="&#x434;" horiz-adv-x="505" 
d="M445 449v-405h49v-194h-46v150h-389v-150h-46v194h42q46 66 67 119q32 79 32 166v120h291zM397 405h-195v-82q0 -78 -30 -159q-25 -68 -64 -120h289v361z" />
    <glyph glyph-name="aring" unicode="&#xe5;" horiz-adv-x="479" 
d="M241 458q91 0 147 -65q53 -61 53 -151h-353q0 -94 49.5 -150t127.5 -56q47 0 89 17.5t79 50.5v-53q-75 -60 -172 -60q-102 0 -163.5 68.5t-61.5 169.5q0 98 56.5 163.5t148.5 65.5zM243 415q-58 0 -98 -38t-52 -97h291q-12 60 -43 94q-37 41 -98 41z" />
    <glyph glyph-name="aring" unicode="&#x435;" horiz-adv-x="479" 
d="M241 458q91 0 147 -65q53 -61 53 -151h-353q0 -94 49.5 -150t127.5 -56q47 0 89 17.5t79 50.5v-53q-75 -60 -172 -60q-102 0 -163.5 68.5t-61.5 169.5q0 98 56.5 163.5t148.5 65.5zM243 415q-58 0 -98 -38t-52 -97h291q-12 60 -43 94q-37 41 -98 41z" />
    <glyph glyph-name="ae" unicode="&#xe6;" horiz-adv-x="619" 
d="M333 252h29q26 0 44 24q13 17 33.5 69t36.5 74q29 39 71 39q15 0 24 -1.5t22 -5.5v-48q-13 9 -40 9q-21 0 -36 -18.5t-29 -54.5q-20 -52 -36 -75q-12 -17 -28 -26q25 -6 47 -29q17 -18 48 -64l98 -145h-58l-77 115q-59 93 -105 93h-44v-208h-48v208h-44q-37 0 -65 -34
q-10 -12 -40 -59l-77 -115h-58l98 145q31 46 47 63q23 24 48 30q-17 9 -35 39q-14 24 -28.5 61t-29.5 55.5t-36 18.5q-27 0 -40 -9v48q4 1 18.5 4t27.5 3q48 0 81 -56q14 -23 28 -60q18 -46 32 -65q18 -25 44 -25h29v197h48v-197z" />
    <glyph glyph-name="ae" unicode="&#x436;" horiz-adv-x="619" 
d="M333 252h29q26 0 44 24q13 17 33.5 69t36.5 74q29 39 71 39q15 0 24 -1.5t22 -5.5v-48q-13 9 -40 9q-21 0 -36 -18.5t-29 -54.5q-20 -52 -36 -75q-12 -17 -28 -26q25 -6 47 -29q17 -18 48 -64l98 -145h-58l-77 115q-59 93 -105 93h-44v-208h-48v208h-44q-37 0 -65 -34
q-10 -12 -40 -59l-77 -115h-58l98 145q31 46 47 63q23 24 48 30q-17 9 -35 39q-14 24 -28.5 61t-29.5 55.5t-36 18.5q-27 0 -40 -9v48q4 1 18.5 4t27.5 3q48 0 81 -56q14 -23 28 -60q18 -46 32 -65q18 -25 44 -25h29v197h48v-197z" />
    <glyph glyph-name="ccedilla" unicode="&#xe7;" horiz-adv-x="364" 
d="M175 208h-62v44h43q43 0 75 24t32 58q0 80 -102 80q-33 0 -66 -12q-21 -8 -57 -27v45q28 16 64 27t70 11q58 0 97 -29q44 -33 44 -92q0 -35 -26 -63q-22 -23 -53 -34q43 -12 69 -39q33 -34 33 -82q0 -59 -45.5 -93.5t-129.5 -34.5q-72 0 -137 33v48q42 -21 71 -29t70 -8
q51 0 83 19q38 22 38 65q0 41 -30.5 65t-80.5 24z" />
    <glyph glyph-name="ccedilla" unicode="&#x437;" horiz-adv-x="364" 
d="M175 208h-62v44h43q43 0 75 24t32 58q0 80 -102 80q-33 0 -66 -12q-21 -8 -57 -27v45q28 16 64 27t70 11q58 0 97 -29q44 -33 44 -92q0 -35 -26 -63q-22 -23 -53 -34q43 -12 69 -39q33 -34 33 -82q0 -59 -45.5 -93.5t-129.5 -34.5q-72 0 -137 33v48q42 -21 71 -29t70 -8
q51 0 83 19q38 22 38 65q0 41 -30.5 65t-80.5 24z" />
    <glyph glyph-name="egrave" unicode="&#xe8;" horiz-adv-x="504" 
d="M60 0v449h48v-375l297 375h38v-449h-48v371l-297 -371h-38z" />
    <glyph glyph-name="egrave" unicode="&#x438;" horiz-adv-x="504" 
d="M60 0v449h48v-375l297 375h38v-449h-48v371l-297 -371h-38z" />
    <glyph glyph-name="eacute" unicode="&#xe9;" horiz-adv-x="504" 
d="M60 0v449h48v-375l297 375h38v-449h-48v371l-297 -371h-38zM129 605h48q6 -61 77 -61q35 0 51 15t23 46h45q-4 -47 -33.5 -75.5t-85.5 -28.5q-55 0 -87 29t-38 75z" />
    <glyph glyph-name="eacute" unicode="&#x439;" horiz-adv-x="504" 
d="M60 0v449h48v-375l297 375h38v-449h-48v371l-297 -371h-38zM129 605h48q6 -61 77 -61q35 0 51 15t23 46h45q-4 -47 -33.5 -75.5t-85.5 -28.5q-55 0 -87 29t-38 75z" />
    <glyph glyph-name="ecircumflex" unicode="&#xea;" horiz-adv-x="419" 
d="M108 252h47q26 0 44 24q13 17 33.5 69t36.5 74q29 39 71 39q15 0 24 -1.5t22 -5.5v-48q-13 9 -40 9q-21 0 -36 -18.5t-29 -54.5q-20 -52 -36 -75q-12 -17 -28 -26q47 -12 101 -93l98 -145h-58l-77 115q-33 52 -55 71q-25 22 -56 22h-62v-208h-48v449h48v-197z" />
    <glyph glyph-name="ecircumflex" unicode="&#x43a;" horiz-adv-x="419" 
d="M108 252h47q26 0 44 24q13 17 33.5 69t36.5 74q29 39 71 39q15 0 24 -1.5t22 -5.5v-48q-13 9 -40 9q-21 0 -36 -18.5t-29 -54.5q-20 -52 -36 -75q-12 -17 -28 -26q47 -12 101 -93l98 -145h-58l-77 115q-33 52 -55 71q-25 22 -56 22h-62v-208h-48v449h48v-197z" />
    <glyph glyph-name="edieresis" unicode="&#xeb;" horiz-adv-x="492" 
d="M100 449h333v-449h-48v405h-237v-223q0 -88 -29 -136q-33 -55 -103 -55l-14 39q54 6 76 37t22 95v287z" />
    <glyph glyph-name="edieresis" unicode="&#x43b;" horiz-adv-x="492" 
d="M100 449h333v-449h-48v405h-237v-223q0 -88 -29 -136q-33 -55 -103 -55l-14 39q54 6 76 37t22 95v287z" />
    <glyph glyph-name="igrave" unicode="&#xec;" horiz-adv-x="534" 
d="M425 449l-158 -197l-159 197h-48v-449h48v380l159 -195l158 196v-381h48v449h-48z" />
    <glyph glyph-name="igrave" unicode="&#x43c;" horiz-adv-x="534" 
d="M425 449l-158 -197l-159 197h-48v-449h48v380l159 -195l158 196v-381h48v449h-48z" />
    <glyph glyph-name="iacute" unicode="&#xed;" horiz-adv-x="486" 
d="M60 0v449h48v-197h269v197h48v-449h-48v208h-269v-208h-48z" />
    <glyph glyph-name="iacute" unicode="&#x43d;" horiz-adv-x="486" 
d="M60 0v449h48v-197h269v197h48v-449h-48v208h-269v-208h-48z" />
    <glyph glyph-name="icircumflex" unicode="&#xee;" horiz-adv-x="539" 
d="M267 458q100 0 164.5 -63.5t64.5 -170.5q0 -104 -65.5 -168.5t-164.5 -64.5q-98 0 -162 68t-64 167t62 165.5t165 66.5zM266 414q-79 0 -127.5 -55t-48.5 -134q0 -78 50 -134.5t127 -56.5q78 0 128.5 55.5t50.5 136.5q0 79 -48 132q-51 56 -132 56z" />
    <glyph glyph-name="icircumflex" unicode="&#x43e;" horiz-adv-x="539" 
d="M267 458q100 0 164.5 -63.5t64.5 -170.5q0 -104 -65.5 -168.5t-164.5 -64.5q-98 0 -162 68t-64 167t62 165.5t165 66.5zM266 414q-79 0 -127.5 -55t-48.5 -134q0 -78 50 -134.5t127 -56.5q78 0 128.5 55.5t50.5 136.5q0 79 -48 132q-51 56 -132 56z" />
    <glyph glyph-name="idieresis" unicode="&#xef;" horiz-adv-x="485" 
d="M59 449h365v-449h-48v405h-269v-405h-48v449z" />
    <glyph glyph-name="idieresis" unicode="&#x43f;" horiz-adv-x="485" 
d="M59 449h365v-449h-48v405h-269v-405h-48v449z" />
    <glyph glyph-name="eth" unicode="&#xf0;" horiz-adv-x="506" 
d="M108 377v-305q61 -36 122 -36q84 0 133 52t49 133q0 85 -53 138t-135 53q-31 0 -58.5 -8.5t-57.5 -26.5zM108 24v-254h-48v679h48v-26q63 35 131 35q99 0 162.5 -63.5t63.5 -168.5q0 -99 -64 -167t-164 -68q-33 0 -62.5 8t-66.5 25z" />
    <glyph glyph-name="eth" unicode="&#x440;" horiz-adv-x="506" 
d="M108 377v-305q61 -36 122 -36q84 0 133 52t49 133q0 85 -53 138t-135 53q-31 0 -58.5 -8.5t-57.5 -26.5zM108 24v-254h-48v679h48v-26q63 35 131 35q99 0 162.5 -63.5t63.5 -168.5q0 -99 -64 -167t-164 -68q-33 0 -62.5 8t-66.5 25z" />
    <glyph glyph-name="ntilde" unicode="&#xf1;" horiz-adv-x="417" 
d="M253 458q61 0 116 -23v-52q-28 14 -56.5 22t-58.5 8q-78 0 -125 -54t-47 -137q0 -85 47.5 -135.5t128.5 -50.5q27 0 57 7.5t62 19.5v-49q-37 -11 -65 -17t-58 -6q-99 0 -160.5 61.5t-61.5 164.5q0 106 60.5 173.5t160.5 67.5z" />
    <glyph glyph-name="ntilde" unicode="&#x441;" horiz-adv-x="417" 
d="M253 458q61 0 116 -23v-52q-28 14 -56.5 22t-58.5 8q-78 0 -125 -54t-47 -137q0 -85 47.5 -135.5t128.5 -50.5q27 0 57 7.5t62 19.5v-49q-37 -11 -65 -17t-58 -6q-99 0 -160.5 61.5t-61.5 164.5q0 106 60.5 173.5t160.5 67.5z" />
    <glyph glyph-name="ograve" unicode="&#xf2;" horiz-adv-x="369" 
d="M367 449v-44h-159v-405h-48v405h-158v44h365z" />
    <glyph glyph-name="ograve" unicode="&#x442;" horiz-adv-x="369" 
d="M367 449v-44h-159v-405h-48v405h-158v44h365z" />
    <glyph glyph-name="oacute" unicode="&#xf3;" horiz-adv-x="417" 
d="M0 449h49l165 -314l153 314h50l-336 -679h-49l157 316z" />
    <glyph glyph-name="oacute" unicode="&#x443;" horiz-adv-x="417" 
d="M0 449h49l165 -314l153 314h50l-336 -679h-49l157 316z" />
    <glyph glyph-name="ocircumflex" unicode="&#xf4;" horiz-adv-x="717" 
d="M334 681h48v-239q20 7 38.5 11.5t38.5 4.5q102 0 164 -67t62 -165q0 -100 -63.5 -167.5t-164.5 -67.5q-25 0 -40 3.5t-35 10.5v-235h-48v235q-21 -8 -35 -11t-40 -3q-101 0 -164.5 67.5t-63.5 167.5q0 99 61.5 165.5t164.5 66.5q19 0 38 -4.5t39 -11.5v239zM444 413
q-16 0 -30 -3.5t-32 -9.5v-353q33 -11 68 -11q84 0 133 52t49 133q0 83 -50 136q-53 56 -138 56zM273 413q-84 0 -136 -55t-52 -137q0 -81 49 -133t133 -52q35 0 68 11v353q-20 7 -32.5 10t-29.5 3z" />
    <glyph glyph-name="ocircumflex" unicode="&#x444;" horiz-adv-x="717" 
d="M334 681h48v-239q20 7 38.5 11.5t38.5 4.5q102 0 164 -67t62 -165q0 -100 -63.5 -167.5t-164.5 -67.5q-25 0 -40 3.5t-35 10.5v-235h-48v235q-21 -8 -35 -11t-40 -3q-101 0 -164.5 67.5t-63.5 167.5q0 99 61.5 165.5t164.5 66.5q19 0 38 -4.5t39 -11.5v239zM444 413
q-16 0 -30 -3.5t-32 -9.5v-353q33 -11 68 -11q84 0 133 52t49 133q0 83 -50 136q-53 56 -138 56zM273 413q-84 0 -136 -55t-52 -137q0 -81 49 -133t133 -52q35 0 68 11v353q-20 7 -32.5 10t-29.5 3z" />
    <glyph glyph-name="otilde" unicode="&#xf5;" horiz-adv-x="479" 
d="M1 449h61l171 -186l173 186h55l-198 -219l212 -230h-60l-181 197l-181 -197h-53l205 229z" />
    <glyph glyph-name="otilde" unicode="&#x445;" horiz-adv-x="479" 
d="M1 449h61l171 -186l173 186h55l-198 -219l212 -230h-60l-181 197l-181 -197h-53l205 229z" />
    <glyph glyph-name="odieresis" unicode="&#xf6;" horiz-adv-x="485" 
d="M427 0h-368v449h48v-405h269v405h48v-405h49v-194h-46v150z" />
    <glyph glyph-name="odieresis" unicode="&#x446;" horiz-adv-x="485" 
d="M427 0h-368v449h48v-405h269v405h48v-405h49v-194h-46v150z" />
    <glyph glyph-name="divide" unicode="&#xf7;" horiz-adv-x="453" 
d="M393 449v-449h-48v219q-30 -10 -61.5 -15t-76.5 -5q-147 0 -147 161v89h48v-86q0 -62 24.5 -91t90.5 -29q40 0 65 3t57 15v188h48z" />
    <glyph glyph-name="divide" unicode="&#x447;" horiz-adv-x="453" 
d="M393 449v-449h-48v219q-30 -10 -61.5 -15t-76.5 -5q-147 0 -147 161v89h48v-86q0 -62 24.5 -91t90.5 -29q40 0 65 3t57 15v188h48z" />
    <glyph glyph-name="oslash" unicode="&#xf8;" horiz-adv-x="709" 
d="M107 449v-405h223v405h48v-405h223v405h48v-449h-590v449h48z" />
    <glyph glyph-name="oslash" unicode="&#x448;" horiz-adv-x="709" 
d="M107 449v-405h223v405h48v-405h223v405h48v-449h-590v449h48z" />
    <glyph glyph-name="ugrave" unicode="&#xf9;" horiz-adv-x="709" 
d="M107 449v-405h223v405h48v-405h223v405h48v-405h49v-194h-46v150h-593v449h48z" />
    <glyph glyph-name="ugrave" unicode="&#x449;" horiz-adv-x="709" 
d="M107 449v-405h223v405h48v-405h223v405h48v-405h49v-194h-46v150h-593v449h48z" />
    <glyph glyph-name="uacute" unicode="&#xfa;" horiz-adv-x="432" 
d="M131 449v-195h98q80 0 120.5 -33.5t40.5 -92.5q0 -61 -40 -94.5t-121 -33.5h-146v405h-86v44h134zM131 210v-166h89q61 0 88 16q32 19 32 68q0 82 -120 82h-89z" />
    <glyph glyph-name="uacute" unicode="&#x44a;" horiz-adv-x="432" 
d="M131 449v-195h98q80 0 120.5 -33.5t40.5 -92.5q0 -61 -40 -94.5t-121 -33.5h-146v405h-86v44h134zM131 210v-166h89q61 0 88 16q32 19 32 68q0 82 -120 82h-89z" />
    <glyph glyph-name="ucircumflex" unicode="&#xfb;" horiz-adv-x="560" 
d="M61 0v449h48v-195h98q80 0 120.5 -33.5t40.5 -92.5q0 -61 -40 -94.5t-121 -33.5h-146zM109 210v-166h89q61 0 88 16q32 19 32 68q0 82 -120 82h-89zM452 449h48v-449h-48v449z" />
    <glyph glyph-name="ucircumflex" unicode="&#x44b;" horiz-adv-x="560" 
d="M61 0v449h48v-195h98q80 0 120.5 -33.5t40.5 -92.5q0 -61 -40 -94.5t-121 -33.5h-146zM109 210v-166h89q61 0 88 16q32 19 32 68q0 82 -120 82h-89zM452 449h48v-449h-48v449z" />
    <glyph glyph-name="udieresis" unicode="&#xfc;" horiz-adv-x="410" 
d="M61 0v449h48v-195h98q80 0 120.5 -33.5t40.5 -92.5q0 -61 -40 -94.5t-121 -33.5h-146zM109 210v-166h89q61 0 88 16q32 19 32 68q0 82 -120 82h-89z" />
    <glyph glyph-name="udieresis" unicode="&#x44c;" horiz-adv-x="410" 
d="M61 0v449h48v-195h98q80 0 120.5 -33.5t40.5 -92.5q0 -61 -40 -94.5t-121 -33.5h-146zM109 210v-166h89q61 0 88 16q32 19 32 68q0 82 -120 82h-89z" />
    <glyph glyph-name="yacute" unicode="&#xfd;" horiz-adv-x="417" 
d="M155 458q-61 0 -116 -23v-52q28 14 56.5 22t58.5 8q70 0 116 -45t54 -116h-198v-44h200q0 -78 -49 -125t-127 -47q-27 0 -57 7.5t-62 19.5v-49q37 -11 65 -17t58 -6q99 0 160.5 61.5t61.5 164.5q0 106 -60.5 173.5t-160.5 67.5z" />
    <glyph glyph-name="yacute" unicode="&#x44d;" horiz-adv-x="417" 
d="M155 458q-61 0 -116 -23v-52q28 14 56.5 22t58.5 8q70 0 116 -45t54 -116h-198v-44h200q0 -78 -49 -125t-127 -47q-27 0 -57 7.5t-62 19.5v-49q37 -11 65 -17t58 -6q99 0 160.5 61.5t61.5 164.5q0 106 -60.5 173.5t-160.5 67.5z" />
    <glyph glyph-name="thorn" unicode="&#xfe;" horiz-adv-x="699" 
d="M108 252h93q8 90 69 148t157 58q100 0 164.5 -63.5t64.5 -170.5q0 -104 -65.5 -168.5t-164.5 -64.5q-93 0 -159 64t-66 153h-93v-208h-48v449h48v-197zM426 414q-79 0 -127.5 -55t-48.5 -134q0 -78 50 -134.5t127 -56.5q78 0 128.5 55.5t50.5 136.5q0 79 -48 132
q-51 56 -132 56z" />
    <glyph glyph-name="thorn" unicode="&#x44e;" horiz-adv-x="699" 
d="M108 252h93q8 90 69 148t157 58q100 0 164.5 -63.5t64.5 -170.5q0 -104 -65.5 -168.5t-164.5 -64.5q-93 0 -159 64t-66 153h-93v-208h-48v449h48v-197zM426 414q-79 0 -127.5 -55t-48.5 -134q0 -78 50 -134.5t127 -56.5q78 0 128.5 55.5t50.5 136.5q0 79 -48 132
q-51 56 -132 56z" />
    <glyph glyph-name="ydieresis" unicode="&#xff;" horiz-adv-x="391" 
d="M331 449v-449h-48v207h-84q-30 0 -51 -25q-12 -14 -48 -79l-57 -103h-50l66 125q42 80 69 97q-36 8 -60 31q-31 30 -31 76q0 55 40 87.5t117 32.5h137zM283 251v154h-79q-117 0 -117 -76q0 -41 30 -59.5t87 -18.5h79z" />
    <glyph glyph-name="ydieresis" unicode="&#x44f;" horiz-adv-x="391" 
d="M331 449v-449h-48v207h-84q-30 0 -51 -25q-12 -14 -48 -79l-57 -103h-50l66 125q42 80 69 97q-36 8 -60 31q-31 30 -31 76q0 55 40 87.5t117 32.5h137zM283 251v154h-79q-117 0 -117 -76q0 -41 30 -59.5t87 -18.5h79z" />
    </font>
</defs>
</svg>
