<svg width="80" height="70" viewBox="0 0 80 70" fill="none" xmlns="http://www.w3.org/2000/svg">
<g clip-path="url(#clip0_33_7)">
<path d="M25.5525 36.4576C30.6158 36.4576 34.5874 38.0541 37.4649 41.2494C39.9676 44.0362 41.219 47.3902 41.219 51.3114C41.219 55.2326 39.9445 58.4629 37.4024 61.238H53.7327L43.2036 36.4599H47.4342L56.2817 57.3215L64.588 37.6433L40 0L16.1846 36.4576H25.5502H25.5525Z" fill="#AC8A70"/>
<path d="M14.1144 39.6296L0 61.2357H14.1144V39.6296Z" fill="#AC8A70"/>
<path d="M58.96 61.2357H79.9997L67.1506 41.5645L58.96 61.2357Z" fill="#AC8A70"/>
<path d="M34.5733 58.1898C36.0976 56.1872 36.8609 53.8929 36.8609 51.3091C36.8609 48.1161 35.8963 45.5324 33.9695 43.5554C31.8392 41.3778 28.8045 40.2878 24.863 40.2878H18.3447V61.2334H30.7474C32.2741 60.5449 33.5509 59.5319 34.5733 58.1875V58.1898Z" fill="#AC8A70"/>
<path d="M59.4318 66.6063C59.7441 66.2749 59.9037 65.8571 59.9037 65.367C59.9037 64.7484 59.6724 64.256 59.2167 63.9012C58.7795 63.5604 58.1804 63.3877 57.4333 63.3877H55.4834V69.867H56.448V67.3252H57.4703L59.5475 69.867H60.7387L58.5367 67.1385C58.8998 67.0265 59.2005 66.8467 59.4318 66.6017V66.6063ZM58.9484 65.367C58.9484 65.7427 58.8258 66.0275 58.5737 66.2329C58.31 66.4499 57.9283 66.5597 57.4333 66.5597H56.448V64.1743H57.4333C57.926 64.1743 58.31 64.284 58.5714 64.5034C58.8235 64.7134 58.9461 64.9958 58.9461 65.367H58.9484Z" fill="#AC8A70"/>
<path d="M65.7284 63.7005C65.2265 63.4087 64.6598 63.2617 64.0422 63.2617C63.4246 63.2617 62.8486 63.4087 62.3467 63.7005C61.8448 63.9922 61.4446 64.4007 61.1578 64.9142C60.8733 65.4253 60.7275 66.0018 60.7275 66.6297C60.7275 67.2575 60.8709 67.8364 61.1578 68.3452C61.4446 68.8587 61.8448 69.2671 62.3467 69.5589C62.8486 69.8506 63.4176 69.9977 64.0422 69.9977C64.6667 69.9977 65.2265 69.8506 65.7284 69.5589C66.2303 69.2671 66.6305 68.8587 66.9173 68.3452C67.2018 67.834 67.3476 67.2552 67.3476 66.6297C67.3476 66.0041 67.2041 65.4253 66.9173 64.9142C66.6305 64.4007 66.2303 63.9922 65.7284 63.7005ZM66.3738 66.6297C66.3738 67.1338 66.272 67.582 66.0684 67.9671C65.8672 68.3475 65.5873 68.6509 65.238 68.8657C64.8888 69.0804 64.4863 69.1878 64.0422 69.1878C63.5981 69.1878 63.1956 69.0781 62.8417 68.8633C62.4878 68.6486 62.2102 68.3475 62.0113 67.9671C61.8124 67.582 61.7106 67.1315 61.7106 66.6273C61.7106 66.1232 61.8124 65.6704 62.0113 65.2829C62.2079 64.9002 62.4878 64.5967 62.8417 64.382C63.1956 64.1673 63.5981 64.0599 64.0422 64.0599C64.4863 64.0599 64.8864 64.1696 65.238 64.382C65.5896 64.5967 65.8672 64.9002 66.0684 65.2829C66.272 65.6704 66.3738 66.1232 66.3738 66.625V66.6297Z" fill="#AC8A70"/>
<path d="M73.0377 67.0871C73.0377 67.5189 72.9591 67.8994 72.8064 68.2168C72.656 68.5249 72.4432 68.763 72.1726 68.9263C71.8973 69.0897 71.5712 69.1737 71.2011 69.1737C70.831 69.1737 70.4864 69.0921 70.2111 68.931C69.9405 68.7723 69.73 68.5389 69.5843 68.2355C69.4339 67.9227 69.3576 67.5423 69.3576 67.1058V63.3924H68.3838V67.1128C68.3838 67.687 68.4971 68.1958 68.7215 68.6253C68.9482 69.0617 69.2743 69.4048 69.6884 69.6429C70.1001 69.881 70.5835 70 71.1271 70C71.6707 70 72.1448 69.8786 72.5543 69.6382C72.966 69.3955 73.2875 69.0524 73.5119 68.6159C73.7316 68.1865 73.845 67.6776 73.845 67.1035V63.39H73.0423V67.0848L73.0377 67.0871Z" fill="#AC8A70"/>
<path d="M79.1234 63.9082C78.6862 63.5651 78.0825 63.39 77.3307 63.39H75.4062V69.8693H76.3708V67.3602H77.3307C78.0779 67.3602 78.6792 67.1852 79.1187 66.8444C79.5767 66.4873 79.808 65.9925 79.808 65.3763C79.808 64.7601 79.5767 64.2653 79.1234 63.9082ZM78.8342 65.3856C78.8342 65.7637 78.7116 66.0508 78.4572 66.2632C78.1958 66.4849 77.8188 66.5946 77.3377 66.5946H76.3685V64.1743H77.3377C77.8234 64.1743 78.2028 64.2839 78.4618 64.5033C78.7116 64.7134 78.8342 65.0028 78.8342 65.3856Z" fill="#AC8A70"/>
<path d="M50.9709 67.0615H53.2192V67.0825C53.2146 67.4932 53.1174 67.862 52.9347 68.1795C52.7519 68.4969 52.4998 68.749 52.1876 68.9263C51.873 69.1061 51.5098 69.1971 51.1097 69.1971C50.6609 69.1971 50.2538 69.0874 49.8999 68.875C49.546 68.6603 49.2685 68.3592 49.0695 67.9741C48.8683 67.5866 48.7688 67.1361 48.7688 66.639C48.7688 66.1418 48.8706 65.6774 49.0695 65.2923C49.2661 64.9118 49.5437 64.6154 49.8976 64.4053C50.2515 64.1953 50.6655 64.0902 51.1259 64.0902C51.6879 64.0902 52.1644 64.2466 52.5438 64.5547C52.7843 64.7508 52.9671 65.0005 53.0989 65.2876H53.9756C53.8738 64.9748 53.7304 64.6877 53.5384 64.431C53.2585 64.0575 52.9 63.7681 52.4721 63.5651C52.0488 63.3643 51.5723 63.264 51.0588 63.264C50.4366 63.264 49.8699 63.4087 49.3725 63.6934C48.8752 63.9805 48.482 64.3843 48.2044 64.8955C47.9292 65.402 47.7881 65.9878 47.7881 66.632C47.7881 67.2762 47.9292 67.869 48.2044 68.3732C48.482 68.8797 48.866 69.2835 49.3494 69.5705C49.8305 69.8576 50.3857 70.0023 50.9986 70.0023C51.644 70.0023 52.2153 69.8366 52.6941 69.5122C52.9115 69.3651 53.1012 69.1901 53.2608 68.9917V69.874H54.1837V66.2982H50.9709V67.0661V67.0615Z" fill="#AC8A70"/>
</g>
<defs>
<clipPath id="clip0_33_7">
<rect width="80" height="70" fill="white"/>
</clipPath>
</defs>
</svg>
